%FSLAX42Y42*%
%MOMM*%
G71*
G01*
G75*
G04 Layer_Physical_Order=1*
G04 Layer_Color=255*
%ADD10R,2.30X3.00*%
%ADD11R,1.25X0.90*%
%ADD12R,0.90X0.90*%
%ADD13R,0.90X0.90*%
%ADD14R,0.90X1.25*%
%ADD15R,1.25X1.50*%
%ADD16R,1.50X1.25*%
%ADD17C,0.50*%
%ADD18C,0.30*%
%ADD19C,2.50*%
%ADD20C,4.00*%
%ADD21C,3.50*%
%ADD22C,2.50*%
D10*
X10100Y5120D02*
D03*
Y5730D02*
D03*
X10460Y8990D02*
D03*
Y8380D02*
D03*
X9790Y8990D02*
D03*
Y8380D02*
D03*
D11*
X10455Y6115D02*
D03*
D12*
X10660Y6210D02*
D03*
Y6020D02*
D03*
D13*
Y6650D02*
D03*
X10470D02*
D03*
D14*
X10565Y6445D02*
D03*
D15*
X10210Y6510D02*
D03*
Y6740D02*
D03*
X9500Y6330D02*
D03*
Y6100D02*
D03*
X9880Y6510D02*
D03*
Y6740D02*
D03*
D16*
X9890Y6100D02*
D03*
X10120D02*
D03*
D17*
X10700Y6650D02*
Y6890D01*
Y6360D02*
Y6650D01*
X10700D01*
X10660D02*
X10700D01*
X10660Y6210D02*
Y6320D01*
X10700Y6360D01*
X10455Y6155D02*
X10495Y6115D01*
X10455Y6155D02*
Y6310D01*
Y6115D02*
Y6155D01*
X10370Y6395D02*
Y6550D01*
Y6395D02*
X10455Y6310D01*
X9880Y6510D02*
X10050D01*
X10210D01*
X10050Y6320D02*
Y6510D01*
Y6320D02*
X10120Y6250D01*
X10270Y6100D02*
X10350Y6020D01*
X10660D01*
X10660Y6020D01*
X10470Y6650D02*
Y6740D01*
X10320Y6890D02*
X10470Y6740D01*
X9500Y6890D02*
X10320D01*
X9500Y7660D02*
Y8090D01*
Y7660D02*
X9660Y7500D01*
X9500Y6890D02*
X9500D01*
Y7340D02*
X9660Y7500D01*
X9500Y6890D02*
Y7340D01*
X10530Y7430D02*
X10600Y7500D01*
X10530Y7430D02*
Y7490D01*
X10700Y7850D02*
Y8090D01*
Y7850D02*
X10790Y7760D01*
Y7240D02*
Y7760D01*
X10700Y7150D02*
X10790Y7240D01*
X10700Y6890D02*
Y7150D01*
X10120Y6100D02*
Y6250D01*
X9760D02*
X10120D01*
X9610Y6100D02*
X9760Y6250D01*
X9500Y6100D02*
X9610D01*
X10370Y6550D02*
Y6690D01*
X9940Y6740D02*
X10210D01*
X9880D02*
X9940D01*
X10210D02*
X10320D01*
X10370Y6690D01*
X10120Y6100D02*
X10270D01*
X9500Y6330D02*
Y6890D01*
X9935Y6745D02*
X9940Y6740D01*
D18*
X10565Y6155D02*
Y6445D01*
X9890Y6100D02*
X10040Y5950D01*
X10290D01*
X10340Y5900D01*
X10740D01*
X10770Y5930D01*
Y6071D01*
X10726Y6115D02*
X10770Y6071D01*
X10605Y6115D02*
X10726D01*
X10565Y6155D02*
X10605Y6115D01*
X10480Y6860D02*
X10570Y6770D01*
X10530Y7220D02*
Y7430D01*
X10370Y6550D02*
X10540D01*
X10570Y6580D01*
Y6770D01*
X10480Y6860D02*
Y7170D01*
X10530Y7220D01*
D19*
X9790Y8990D02*
X9950Y9150D01*
X9500Y8670D02*
X9790Y8380D01*
X10410D01*
X9500Y8670D02*
Y9290D01*
X9950Y9420D02*
Y9700D01*
X10100Y9850D01*
X10410Y9660D02*
X10600Y9850D01*
X10410Y8990D02*
Y9660D01*
X9950Y9150D02*
Y9420D01*
X9500Y9290D02*
Y9750D01*
X9600Y9850D01*
Y5120D02*
X10100D01*
X10600Y5590D02*
X10700Y5690D01*
X10600Y5120D02*
Y5590D01*
X10100Y5730D02*
X10140Y5690D01*
X10700D01*
D20*
X10100Y7153D02*
Y7828D01*
D21*
X10600Y5120D02*
D03*
X9600D02*
D03*
X10600Y9850D02*
D03*
X10100D02*
D03*
X9600D02*
D03*
X9660Y7500D02*
D03*
X10100D02*
D03*
X10530Y7490D02*
D03*
D22*
X10100Y7828D02*
D03*
X10700Y9290D02*
D03*
Y8090D02*
D03*
X9500Y9290D02*
D03*
Y8090D02*
D03*
X10700Y6890D02*
D03*
Y5690D02*
D03*
X9500Y6890D02*
D03*
Y5690D02*
D03*
X10100Y7153D02*
D03*
M02*
