%FSLAX42Y42*%
%MOMM*%
G71*
G01*
G75*
G04 Layer_Color=8388736*
%ADD10R,2.30X3.00*%
%ADD11R,1.25X0.90*%
%ADD12R,0.90X0.90*%
%ADD13R,0.90X0.90*%
%ADD14R,0.90X1.25*%
%ADD15R,1.25X1.50*%
%ADD16R,1.50X1.25*%
%ADD17C,0.50*%
%ADD18C,0.30*%
%ADD19C,2.50*%
%ADD20C,4.00*%
%ADD21C,3.50*%
%ADD22C,2.50*%
%ADD23R,2.50X3.20*%
%ADD24R,1.45X1.10*%
%ADD25R,1.10X1.10*%
%ADD26R,1.10X1.10*%
%ADD27R,1.10X1.45*%
%ADD28R,1.45X1.70*%
%ADD29R,1.70X1.45*%
%ADD30C,3.70*%
%ADD31C,2.70*%
D23*
X10100Y5120D02*
D03*
Y5730D02*
D03*
X10460Y8990D02*
D03*
Y8380D02*
D03*
X9790Y8990D02*
D03*
Y8380D02*
D03*
D24*
X10455Y6115D02*
D03*
D25*
X10660Y6210D02*
D03*
Y6020D02*
D03*
D26*
Y6650D02*
D03*
X10470D02*
D03*
D27*
X10565Y6445D02*
D03*
D28*
X10210Y6510D02*
D03*
Y6740D02*
D03*
X9500Y6330D02*
D03*
Y6100D02*
D03*
X9880Y6510D02*
D03*
Y6740D02*
D03*
D29*
X9890Y6100D02*
D03*
X10120D02*
D03*
D30*
X10600Y5120D02*
D03*
X9600D02*
D03*
X10600Y9850D02*
D03*
X10100D02*
D03*
X9600D02*
D03*
X9660Y7500D02*
D03*
X10100D02*
D03*
X10530Y7490D02*
D03*
D31*
X10100Y7828D02*
D03*
X10700Y9290D02*
D03*
Y8090D02*
D03*
X9500Y9290D02*
D03*
Y8090D02*
D03*
X10700Y6890D02*
D03*
Y5690D02*
D03*
X9500Y6890D02*
D03*
Y5690D02*
D03*
X10100Y7153D02*
D03*
M02*
