METRIC,LZ
M48
T1F00S00C0.76
T2F00S00C0.90
T3F00S00C1.20
T4F00S00C1.50
T5F00S00C2.00
%
T01
X005053Y001394
Y00152
Y001648
T02
X005228Y00097
X005478
X005475Y002083
X005225
T03
X00314Y001
X00354
X00414Y00075
X00474Y001
X00254Y00075
X00194Y001
X00154Y001
X00094Y00075
X00034Y001
Y0022
X00154
X00194Y0022
X00314
X00354
X00474
T04
X003483Y00027
X003992
X004288Y000267
X004797
T05
X00297Y000265
X005358
X002055
X000943
X00034
Y002758
X00154
X003138
X00474
X005478
M30
