M48
;Layer_Color=9474304
;FILE_FORMAT=4:2
METRIC,LZ
;TYPE=PLATED
T1F00S00C0.80
T2F00S00C1.50
T3F00S00C2.00
%
T01
X001435Y-001865
Y-00161
Y-001355
Y-001105
Y-00085
T02
X00337Y-00181
X003772
X004972
X00217
X001773
X000572
Y-00061
X001173Y-000347
X001773Y-00061
X00217
X00277Y-000347
X00337Y-00061
X003772
X004372Y-000347
X004972Y-00061
T03
X00338Y-00231
X003915Y-002308
X005425Y-00231
X005417Y-001777
X002558Y-002312
X00177Y-002312
X001168Y-002312
X00057
X005412Y-000512
M30
