METRIC,LZ
M48
T1F00S00C0.80
T2F00S00C1.20
T3F00S00C2.00
%
T01
X00129Y-000755
Y-00101
Y-00126
Y-001515
Y-00177
T02
X003225Y-001715
X003628
X004828
X002025
X001627
X000428
Y-000515
X001027Y-000253
X001627Y-000515
X002025
X002625Y-000253
X003225Y-000515
X003628
X004228Y-000253
X004828Y-000515
T03
X003235Y-002308
X00377Y-002305
X00533Y-002308
X005322Y-001775
X002412Y-00231
X001625Y-00231
X001023Y-002312
X000425
X005317Y-00051
M30
