%FSLAX42Y42*%
%MOMM*%
G71*
G01*
G75*
G04 Layer_Physical_Order=1*
G04 Layer_Color=255*
%ADD10R,0.90X1.25*%
%ADD11R,0.90X0.90*%
%ADD12R,2.00X2.50*%
%ADD13R,5.59X7.62*%
%ADD14R,2.00X2.54*%
%ADD15R,1.25X1.50*%
%ADD16R,1.50X1.25*%
%ADD17R,1.50X1.50*%
%ADD18O,2.00X0.50*%
%ADD19R,2.00X0.50*%
%ADD20C,2.00*%
%ADD21C,0.50*%
%ADD22C,2.50*%
%ADD23R,4.60X2.90*%
%ADD24R,3.90X3.00*%
%ADD25R,3.70X2.90*%
%ADD26R,2.00X3.00*%
%ADD27R,2.90X2.80*%
%ADD28R,8.10X3.70*%
%ADD29R,2.50X2.50*%
%ADD30R,2.50X2.50*%
%ADD31C,3.40*%
%ADD32C,3.30*%
D10*
X10335Y7375D02*
D03*
X9575Y7695D02*
D03*
D11*
X10430Y7170D02*
D03*
X10240D02*
D03*
X9480Y7490D02*
D03*
X9670D02*
D03*
D12*
X10581Y8590D02*
D03*
X10200D02*
D03*
X9941Y8580D02*
D03*
D13*
X10390Y9225D02*
D03*
X9750Y9215D02*
D03*
D14*
X9560Y8580D02*
D03*
D15*
X10670Y7360D02*
D03*
Y7590D02*
D03*
Y8110D02*
D03*
Y7880D02*
D03*
X10250Y7370D02*
D03*
Y7140D02*
D03*
D16*
X9980Y7310D02*
D03*
X9750D02*
D03*
D17*
X9890Y8270D02*
D03*
X9550D02*
D03*
D18*
X9890Y7590D02*
D03*
Y7715D02*
D03*
Y7845D02*
D03*
Y7970D02*
D03*
X10450D02*
D03*
Y7845D02*
D03*
Y7715D02*
D03*
D19*
Y7590D02*
D03*
D20*
X9941Y8429D02*
X10070Y8300D01*
X10581Y8411D02*
Y8600D01*
X10470Y8300D02*
X10581Y8411D01*
X10070Y8300D02*
X10470D01*
D21*
X9560Y8600D02*
X9730Y8770D01*
X9560Y8330D02*
Y8580D01*
X10704Y8770D02*
X10750Y8724D01*
X10200Y8590D02*
Y8760D01*
X10220Y8580D02*
Y8630D01*
X9730Y8770D02*
X10704D01*
X10750Y8361D02*
Y8724D01*
X9480Y7490D02*
X9670D01*
X9480Y7380D02*
Y7500D01*
X9740Y7310D02*
X9890Y7460D01*
Y7590D01*
X9980Y7310D02*
X10045Y7375D01*
X10670Y7590D02*
Y7690D01*
X10645Y7715D02*
X10670Y7690D01*
X10450Y7715D02*
X10645D01*
X9890Y7845D02*
X10105D01*
X10235Y7715D01*
X10450D01*
X10235Y7385D02*
Y7715D01*
X10045Y7375D02*
X10355D01*
X10450Y7590D02*
X10455Y7585D01*
Y7360D02*
X10670D01*
X10455Y7175D02*
Y7360D01*
Y7585D01*
X9690Y7590D02*
X9890D01*
X9575Y7705D02*
X9690Y7590D01*
X10450Y7845D02*
X10635D01*
X10670Y7880D01*
Y8110D02*
Y8281D01*
X10750Y8361D01*
X9755Y7715D02*
X9890D01*
X9690Y7780D02*
X9755Y7715D01*
X9690Y7780D02*
Y7900D01*
X9550Y8040D02*
X9690Y7900D01*
X9550Y8040D02*
Y8270D01*
X9525Y8295D02*
X9560Y8330D01*
D22*
X9750Y9215D02*
Y9810D01*
Y9215D02*
X9750Y9215D01*
X10390Y9236D02*
Y9810D01*
Y9236D02*
X10390Y9235D01*
D23*
X10090Y7065D02*
D03*
D24*
X10575Y7070D02*
D03*
D25*
X9615Y7065D02*
D03*
D26*
X9530Y7260D02*
D03*
D27*
X10625Y7330D02*
D03*
D28*
X10145Y8225D02*
D03*
D29*
X10040Y7050D02*
D03*
X10650D02*
D03*
D30*
X9560D02*
D03*
D31*
X10210Y8230D02*
D03*
D32*
X10390Y9810D02*
D03*
X9750D02*
D03*
M02*
