%FSLAX42Y42*%
%MOMM*%
G71*
G01*
G75*
G04 Layer_Color=8388736*
%ADD10R,2.00X2.50*%
%ADD11R,5.59X7.62*%
%ADD12R,2.00X2.54*%
%ADD13R,1.50X1.25*%
%ADD14R,0.90X0.90*%
%ADD15R,0.90X1.25*%
%ADD16C,0.50*%
%ADD17C,2.50*%
%ADD18C,2.00*%
%ADD19R,5.80X4.20*%
%ADD20R,3.90X2.20*%
%ADD21R,2.70X3.50*%
%ADD22R,4.40X3.80*%
%ADD23R,6.00X3.40*%
%ADD24C,3.00*%
%ADD25R,2.50X2.50*%
%ADD26C,3.40*%
%ADD27C,3.30*%
%ADD28R,2.20X2.70*%
%ADD29R,5.79X7.82*%
%ADD30R,2.20X2.74*%
%ADD31R,1.70X1.45*%
%ADD32R,1.10X1.10*%
%ADD33R,1.10X1.45*%
%ADD34C,3.20*%
%ADD35R,2.70X2.70*%
%ADD36C,3.60*%
%ADD37C,3.50*%
D28*
X10581Y8600D02*
D03*
X10200D02*
D03*
X9941Y8580D02*
D03*
D29*
X10390Y9235D02*
D03*
X9750Y9215D02*
D03*
D30*
X9560Y8580D02*
D03*
D31*
X9750Y8330D02*
D03*
X9520D02*
D03*
X10680Y9880D02*
D03*
X10450D02*
D03*
X9930Y7910D02*
D03*
X10160D02*
D03*
X10680Y7720D02*
D03*
X10450D02*
D03*
X9930Y7650D02*
D03*
X10160D02*
D03*
D32*
X9710Y8150D02*
D03*
X9520D02*
D03*
D33*
X9615Y7945D02*
D03*
D34*
X10510Y8000D02*
D03*
D35*
X9615Y7710D02*
D03*
D36*
X10210Y8230D02*
D03*
D37*
X10140Y9810D02*
D03*
X9660D02*
D03*
M02*
