%FSLAX42Y42*%
%MOMM*%
G71*
G01*
G75*
G04 Layer_Physical_Order=1*
G04 Layer_Color=255*
%ADD10R,2.00X2.50*%
%ADD11R,5.59X7.62*%
%ADD12R,2.00X2.54*%
%ADD13R,1.50X1.25*%
%ADD14R,0.90X0.90*%
%ADD15R,0.90X1.25*%
%ADD16C,0.50*%
%ADD17C,2.50*%
%ADD18C,2.00*%
%ADD19R,5.80X4.20*%
%ADD20R,3.90X2.20*%
%ADD21R,2.70X3.50*%
%ADD22R,4.40X3.80*%
%ADD23R,6.00X3.40*%
%ADD24C,3.00*%
%ADD25R,2.50X2.50*%
%ADD26C,3.40*%
%ADD27C,3.30*%
D10*
X10581Y8600D02*
D03*
X10200D02*
D03*
X9941Y8580D02*
D03*
D11*
X10390Y9235D02*
D03*
X9750Y9215D02*
D03*
D12*
X9560Y8580D02*
D03*
D13*
X9750Y8330D02*
D03*
X9520D02*
D03*
X10680Y9880D02*
D03*
X10450D02*
D03*
X9930Y7910D02*
D03*
X10160D02*
D03*
X10680Y7720D02*
D03*
X10450D02*
D03*
X9930Y7650D02*
D03*
X10160D02*
D03*
D14*
X9710Y8150D02*
D03*
X9520D02*
D03*
D15*
X9615Y7945D02*
D03*
D16*
X9510Y8300D02*
X9520Y8290D01*
Y8150D02*
Y8290D01*
X9570Y7650D02*
X9930D01*
X9615Y7645D02*
Y7945D01*
X9510Y8530D02*
X9560Y8580D01*
X9930Y7640D02*
Y7910D01*
X9740Y8330D02*
X9941D01*
X10710Y9880D02*
Y9900D01*
X10690Y9730D02*
Y9880D01*
X10160Y7650D02*
Y7880D01*
X10080Y8770D02*
X10220Y8630D01*
Y8580D02*
Y8600D01*
Y8630D01*
X9560Y8580D02*
Y8600D01*
X9730Y8770D01*
X10080D01*
X9520Y8330D02*
Y8560D01*
X10180Y7890D02*
Y7910D01*
X9940Y8150D02*
X10180Y7910D01*
X9710Y8150D02*
X9940D01*
X10690Y9730D02*
X10736Y9684D01*
X10321Y9750D02*
X10450Y9880D01*
X10160Y7650D02*
X10280D01*
X10328Y7603D01*
X10680Y7630D02*
Y7720D01*
X10653Y7603D02*
X10680Y7630D01*
X10328Y7603D02*
X10653D01*
X10450Y7720D02*
X10530Y7800D01*
Y8000D01*
X10680Y7720D02*
X10736Y7776D01*
Y9684D01*
D17*
X9660Y9306D02*
Y9810D01*
Y9306D02*
X9750Y9215D01*
X10140Y9810D02*
X10390Y9560D01*
Y9235D02*
Y9560D01*
D18*
X9941Y8429D02*
X10070Y8300D01*
X10581Y8411D02*
Y8600D01*
X10470Y8300D02*
X10581Y8411D01*
X10070Y8300D02*
X10470D01*
D19*
X9720Y7770D02*
D03*
D20*
X10485Y7930D02*
D03*
D21*
X10545Y7995D02*
D03*
D22*
X9650Y9790D02*
D03*
D23*
X10210Y9810D02*
D03*
D24*
X10510Y8000D02*
D03*
D25*
X9615Y7710D02*
D03*
D26*
X10210Y8230D02*
D03*
D27*
X10140Y9810D02*
D03*
X9660D02*
D03*
M02*
