%FSLAX42Y42*%
%MOMM*%
G71*
G01*
G75*
G04 Layer_Physical_Order=1*
G04 Layer_Color=255*
%ADD10R,1.50X1.25*%
%ADD11R,1.25X1.50*%
%ADD12R,1.50X1.50*%
%ADD13O,2.00X0.60*%
%ADD14R,1.78X2.54*%
%ADD15R,5.59X7.62*%
%ADD16R,2.54X1.78*%
%ADD17R,7.62X5.59*%
%ADD18R,0.90X0.90*%
%ADD19R,0.90X1.25*%
%ADD20R,0.90X0.90*%
%ADD21R,1.25X0.90*%
%ADD22C,0.50*%
%ADD23C,0.30*%
%ADD24C,0.35*%
%ADD25C,2.50*%
%ADD26C,0.25*%
%ADD27R,13.30X3.00*%
%ADD28R,4.30X6.30*%
%ADD29R,4.00X7.80*%
%ADD30R,4.00X4.70*%
%ADD31R,4.90X6.40*%
%ADD32R,3.50X7.80*%
%ADD33R,5.20X6.30*%
%ADD34R,11.10X9.60*%
%ADD35R,9.90X3.00*%
%ADD36R,11.20X16.40*%
%ADD37C,3.50*%
%ADD38R,1.80X1.80*%
%ADD39R,2.00X1.40*%
%ADD40O,2.00X1.40*%
D10*
X12930Y8030D02*
D03*
X12700D02*
D03*
Y8255D02*
D03*
X12930D02*
D03*
X10640Y7320D02*
D03*
X10870D02*
D03*
X11380Y8130D02*
D03*
X11150D02*
D03*
X12420Y6170D02*
D03*
X12650D02*
D03*
X12420Y6430D02*
D03*
X12650D02*
D03*
X12280Y7630D02*
D03*
X12050D02*
D03*
X12930Y8570D02*
D03*
X12700D02*
D03*
D11*
X12280Y7630D02*
D03*
Y7400D02*
D03*
X12050Y7630D02*
D03*
Y7400D02*
D03*
X11340Y9180D02*
D03*
Y8950D02*
D03*
X11150Y7610D02*
D03*
Y7840D02*
D03*
X12550Y7630D02*
D03*
Y7400D02*
D03*
X11430Y7840D02*
D03*
Y7610D02*
D03*
X12700Y8255D02*
D03*
Y8025D02*
D03*
D12*
X12110Y6650D02*
D03*
X11770D02*
D03*
X11340Y8660D02*
D03*
X11000D02*
D03*
D13*
X11740D02*
D03*
Y8535D02*
D03*
Y8405D02*
D03*
Y8280D02*
D03*
Y8150D02*
D03*
Y8025D02*
D03*
Y7900D02*
D03*
X12300D02*
D03*
Y8025D02*
D03*
Y8150D02*
D03*
Y8280D02*
D03*
Y8405D02*
D03*
Y8535D02*
D03*
Y8660D02*
D03*
D14*
X12120Y6190D02*
D03*
X11739D02*
D03*
D15*
X11929Y5555D02*
D03*
D16*
X11410Y5480D02*
D03*
Y5861D02*
D03*
D17*
X10775Y5671D02*
D03*
D18*
X12520Y7050D02*
D03*
X12330D02*
D03*
X10710Y7520D02*
D03*
X10900D02*
D03*
D19*
X12425Y6845D02*
D03*
X10805Y7725D02*
D03*
D20*
X10270Y8750D02*
D03*
Y8560D02*
D03*
X10470Y7510D02*
D03*
Y7700D02*
D03*
D21*
X10475Y8655D02*
D03*
X10265Y7605D02*
D03*
D22*
X12860Y8920D02*
X13135D01*
X12378Y8797D02*
X12738D01*
X12860Y8920D01*
X10470Y7510D02*
Y7700D01*
X12560Y7160D02*
X12770D01*
X12360D02*
X12560D01*
X12770D02*
X12780Y7170D01*
X11060Y6950D02*
X12080D01*
X12180Y7050D01*
X11020Y6990D02*
X11060Y6950D01*
X10900Y7520D02*
X11060D01*
X11150Y7610D01*
X12420Y6650D02*
X12550D01*
X12110D02*
X12420D01*
X12425Y6655D01*
X12550Y6650D02*
X12650Y6550D01*
Y6430D02*
Y6550D01*
X12030Y6430D02*
X12420D01*
X11940Y6340D02*
X12030Y6430D01*
X12450D02*
X12650D01*
X12420D02*
X12450D01*
X12460Y6440D01*
X12435Y6415D02*
X12450Y6430D01*
X13135Y7175D02*
Y8570D01*
X13130Y7170D02*
X13135Y7175D01*
X10805Y7725D02*
Y8115D01*
X10800Y7730D02*
X10805Y7725D01*
X10780Y7700D02*
X10805Y7725D01*
X10470Y7700D02*
X10780D01*
X11020Y6990D02*
Y7520D01*
X12550Y7170D02*
X12560Y7160D01*
X12550Y7170D02*
Y7400D01*
X12330Y7050D02*
Y7130D01*
X12360Y7160D01*
X12180Y7050D02*
X12330D01*
X12650Y6170D02*
Y6430D01*
X13135Y8570D02*
Y8920D01*
X12930Y8570D02*
X13135D01*
X12930Y8030D02*
Y8255D01*
X12700Y7710D02*
Y8025D01*
Y7710D02*
X12870Y7540D01*
X12300Y8660D02*
Y8720D01*
X12378Y8797D01*
X10265Y7815D02*
Y8745D01*
X10270Y8750D01*
X11770Y6221D02*
Y6650D01*
X11739Y6190D02*
X11770Y6221D01*
X12420Y6170D02*
X12650D01*
X11340Y9180D02*
X11465Y9305D01*
X12130Y6180D02*
X12620D01*
X12120Y6190D02*
X12130Y6180D01*
X11440Y7220D02*
Y7600D01*
X11430Y7610D02*
X11440Y7600D01*
X11410Y5480D02*
X11595Y5665D01*
Y5959D01*
X11627Y5991D01*
X11631D01*
X11640Y6000D01*
X11880D01*
X11940Y6060D01*
Y6340D01*
X12425Y6655D02*
Y6845D01*
X10265Y7365D02*
X10850Y6780D01*
X11230D01*
X11410Y6600D01*
Y6190D02*
Y6600D01*
X10265Y7365D02*
Y7815D01*
X12970Y9305D02*
X13135Y9140D01*
Y8920D02*
Y9140D01*
X11465Y9305D02*
X12970D01*
D23*
X12845Y8795D02*
X12970D01*
X12555Y8715D02*
X12765D01*
X12845Y8795D01*
X12500Y8660D02*
X12555Y8715D01*
X12500Y8440D02*
Y8660D01*
X12465Y8405D02*
X12500Y8440D01*
X12300Y8405D02*
X12465D01*
X11740Y8535D02*
X11860D01*
X11630Y8910D02*
X11700Y8840D01*
X11630Y8910D02*
Y9050D01*
X11700Y8840D02*
X11840D01*
X11740Y8405D02*
X11885D01*
X12110Y8280D02*
X12300D01*
X12145Y8405D02*
X12300D01*
X11860Y8535D02*
X11890Y8565D01*
Y8790D01*
X11840Y8840D02*
X11890Y8790D01*
X12070Y8480D02*
X12145Y8405D01*
X12070Y8480D02*
Y8728D01*
X12392Y9050D01*
X11885Y8405D02*
X11950Y8470D01*
X12010Y8380D02*
Y8922D01*
Y8380D02*
X12110Y8280D01*
X12010Y8922D02*
X12138Y9050D01*
X11884Y8906D02*
Y9050D01*
Y8906D02*
X11950Y8840D01*
Y8470D02*
Y8840D01*
D24*
X12240Y6955D02*
X12425D01*
X10982Y6878D02*
X12162D01*
X12240Y6955D01*
X10400Y8520D02*
X11070D01*
X10378Y7393D02*
Y8497D01*
X10400Y8520D01*
X11040Y7660D02*
Y8020D01*
X10993Y7612D02*
X11040Y7660D01*
X10803Y7612D02*
X10993D01*
X10710Y7520D02*
X10803Y7612D01*
X11040Y8020D02*
X11150Y8130D01*
X11247Y8343D02*
X11397D01*
X11070Y8520D02*
X11247Y8343D01*
X11950Y7530D02*
X12050Y7630D01*
X11720Y7530D02*
X11950D01*
X12050Y7400D02*
X12280D01*
Y7630D02*
X12550D01*
X12300Y7780D02*
Y7900D01*
X12280Y7760D02*
X12300Y7780D01*
X12280Y7630D02*
Y7760D01*
X12700Y8255D02*
Y8570D01*
X12300Y8025D02*
X12450D01*
X12575Y8255D02*
X12700D01*
X12520Y8200D02*
X12575Y8255D01*
X12520Y8095D02*
Y8200D01*
X12450Y8025D02*
X12520Y8095D01*
X12466Y8870D02*
X12646Y9050D01*
X12132Y8702D02*
X12300Y8870D01*
X12466D01*
X11240Y8480D02*
X11390D01*
X11070Y8900D02*
Y9490D01*
X11170Y8550D02*
X11240Y8480D01*
X11170Y8550D02*
Y8800D01*
X11070Y8900D02*
X11170Y8800D01*
X12132Y8557D02*
X12155Y8535D01*
X12132Y8557D02*
Y8702D01*
X12155Y8535D02*
X12300D01*
X12646Y9050D02*
X12970D01*
X11340Y8680D02*
X11360Y8660D01*
X11740D01*
X11340Y8680D02*
Y8950D01*
X11170Y9410D02*
X11315Y9555D01*
X11170Y9010D02*
Y9410D01*
Y9010D02*
X11230Y8950D01*
X11340D01*
X11315Y9555D02*
X12970D01*
X12810Y9650D02*
X12970Y9810D01*
X11230Y9650D02*
X12810D01*
X11070Y9490D02*
X11230Y9650D01*
X10475Y8660D02*
X11000D01*
X10450Y7320D02*
X10640D01*
X11380Y8130D02*
X11480D01*
X11585Y8025D01*
X11740D01*
X11590Y8280D02*
X11740D01*
X11390Y8480D02*
X11590Y8280D01*
Y8150D02*
X11740D01*
X11397Y8343D02*
X11590Y8150D01*
X10378Y7393D02*
X10450Y7320D01*
X11540Y7840D02*
X11600Y7900D01*
X11740D01*
X11150Y7840D02*
X11430D01*
X11540D01*
X10870Y7320D02*
X10875Y7315D01*
Y6985D02*
Y7315D01*
Y6985D02*
X10982Y6878D01*
X12425Y6955D02*
X12520Y7050D01*
D25*
X11410Y5920D02*
Y6190D01*
X11680D01*
X10780Y5920D02*
Y6190D01*
X12170Y5560D02*
X12440D01*
D26*
X11380Y10012D02*
Y9860D01*
X11456D01*
X11482Y9885D01*
Y9987D01*
X11456Y10012D01*
X11380D01*
X11532D02*
Y9860D01*
X11634D01*
X11685Y9936D02*
X11786D01*
X11837Y10012D02*
Y9911D01*
X11888Y9860D01*
X11939Y9911D01*
Y10012D01*
X11989Y9987D02*
X12015Y10012D01*
X12066D01*
X12091Y9987D01*
Y9962D01*
X12066Y9936D01*
X12040D01*
X12066D01*
X12091Y9911D01*
Y9885D01*
X12066Y9860D01*
X12015D01*
X11989Y9885D01*
X10460Y10012D02*
Y9860D01*
Y9936D01*
X10562D01*
Y10012D01*
Y9860D01*
X10714Y10012D02*
X10612D01*
Y9860D01*
X10714D01*
X10612Y9936D02*
X10663D01*
X10765Y10012D02*
X10866Y9860D01*
Y10012D02*
X10765Y9860D01*
D27*
X12175Y9350D02*
D03*
D28*
X12865Y7605D02*
D03*
D29*
X11730Y7400D02*
D03*
D30*
X11300Y7245D02*
D03*
D31*
X12915Y6940D02*
D03*
D32*
X11405Y6420D02*
D03*
D33*
X10720Y8145D02*
D03*
D34*
X12605Y5520D02*
D03*
D35*
X11785Y5190D02*
D03*
D36*
X10610Y5860D02*
D03*
D37*
X10780Y6190D02*
D03*
X11720Y7530D02*
D03*
X12870Y7540D02*
D03*
X12440Y5560D02*
D03*
X11290Y7240D02*
D03*
X11410Y6190D02*
D03*
X10800Y8120D02*
D03*
X12870Y6940D02*
D03*
D38*
X12646Y9304D02*
D03*
Y9050D02*
D03*
X12392Y9304D02*
D03*
Y9050D02*
D03*
X12138Y9304D02*
D03*
Y9050D02*
D03*
X11884Y9304D02*
D03*
Y9050D02*
D03*
X11630Y9304D02*
D03*
Y9050D02*
D03*
D39*
X12970Y9810D02*
D03*
D40*
Y9555D02*
D03*
Y9305D02*
D03*
Y9050D02*
D03*
Y8795D02*
D03*
M02*
