%FSLAX42Y42*%
%MOMM*%
G71*
G01*
G75*
G04 Layer_Color=8388736*
%ADD10R,1.50X1.25*%
%ADD11R,1.25X1.50*%
%ADD12R,1.50X1.50*%
%ADD13O,2.00X0.60*%
%ADD14R,1.78X2.54*%
%ADD15R,5.59X7.62*%
%ADD16R,2.54X1.78*%
%ADD17R,7.62X5.59*%
%ADD18R,0.90X0.90*%
%ADD19R,0.90X1.25*%
%ADD20R,0.90X0.90*%
%ADD21R,1.25X0.90*%
%ADD22C,0.50*%
%ADD23C,0.30*%
%ADD24C,0.35*%
%ADD25C,2.50*%
%ADD26C,0.25*%
%ADD27R,13.30X3.00*%
%ADD28R,4.30X6.30*%
%ADD29R,4.00X7.80*%
%ADD30R,4.00X4.70*%
%ADD31R,4.90X6.40*%
%ADD32R,3.50X7.80*%
%ADD33R,5.20X6.30*%
%ADD34R,11.10X9.60*%
%ADD35R,9.90X3.00*%
%ADD36R,11.20X16.40*%
%ADD37C,3.50*%
%ADD38R,1.80X1.80*%
%ADD39R,2.00X1.40*%
%ADD40O,2.00X1.40*%
%ADD41R,1.70X1.45*%
%ADD42R,1.45X1.70*%
%ADD43R,1.70X1.70*%
%ADD44O,2.20X0.80*%
%ADD45R,1.98X2.74*%
%ADD46R,5.79X7.82*%
%ADD47R,2.74X1.98*%
%ADD48R,7.82X5.79*%
%ADD49R,1.10X1.10*%
%ADD50R,1.10X1.45*%
%ADD51R,1.10X1.10*%
%ADD52R,1.45X1.10*%
%ADD53C,3.70*%
%ADD54R,2.00X2.00*%
%ADD55R,2.20X1.60*%
%ADD56O,2.20X1.60*%
D41*
X12930Y8030D02*
D03*
X12700D02*
D03*
Y8255D02*
D03*
X12930D02*
D03*
X10640Y7320D02*
D03*
X10870D02*
D03*
X11380Y8130D02*
D03*
X11150D02*
D03*
X12420Y6170D02*
D03*
X12650D02*
D03*
X12420Y6430D02*
D03*
X12650D02*
D03*
X12280Y7630D02*
D03*
X12050D02*
D03*
X12930Y8570D02*
D03*
X12700D02*
D03*
D42*
X12280Y7630D02*
D03*
Y7400D02*
D03*
X12050Y7630D02*
D03*
Y7400D02*
D03*
X11340Y9180D02*
D03*
Y8950D02*
D03*
X11150Y7610D02*
D03*
Y7840D02*
D03*
X12550Y7630D02*
D03*
Y7400D02*
D03*
X11430Y7840D02*
D03*
Y7610D02*
D03*
X12700Y8255D02*
D03*
Y8025D02*
D03*
D43*
X12110Y6650D02*
D03*
X11770D02*
D03*
X11340Y8660D02*
D03*
X11000D02*
D03*
D44*
X11740D02*
D03*
Y8535D02*
D03*
Y8405D02*
D03*
Y8280D02*
D03*
Y8150D02*
D03*
Y8025D02*
D03*
Y7900D02*
D03*
X12300D02*
D03*
Y8025D02*
D03*
Y8150D02*
D03*
Y8280D02*
D03*
Y8405D02*
D03*
Y8535D02*
D03*
Y8660D02*
D03*
D45*
X12120Y6190D02*
D03*
X11739D02*
D03*
D46*
X11929Y5555D02*
D03*
D47*
X11410Y5480D02*
D03*
Y5861D02*
D03*
D48*
X10775Y5671D02*
D03*
D49*
X12520Y7050D02*
D03*
X12330D02*
D03*
X10710Y7520D02*
D03*
X10900D02*
D03*
D50*
X12425Y6845D02*
D03*
X10805Y7725D02*
D03*
D51*
X10270Y8750D02*
D03*
Y8560D02*
D03*
X10470Y7510D02*
D03*
Y7700D02*
D03*
D52*
X10475Y8655D02*
D03*
X10265Y7605D02*
D03*
D53*
X10780Y6190D02*
D03*
X11720Y7530D02*
D03*
X12870Y7540D02*
D03*
X12440Y5560D02*
D03*
X11290Y7240D02*
D03*
X11410Y6190D02*
D03*
X10800Y8120D02*
D03*
X12870Y6940D02*
D03*
D54*
X12646Y9304D02*
D03*
Y9050D02*
D03*
X12392Y9304D02*
D03*
Y9050D02*
D03*
X12138Y9304D02*
D03*
Y9050D02*
D03*
X11884Y9304D02*
D03*
Y9050D02*
D03*
X11630Y9304D02*
D03*
Y9050D02*
D03*
D55*
X12970Y9810D02*
D03*
D56*
Y9555D02*
D03*
Y9305D02*
D03*
Y9050D02*
D03*
Y8795D02*
D03*
M02*
