M48
;Layer_Color=9474304
;FILE_FORMAT=4:2
METRIC,LZ
;TYPE=PLATED
T1F00S00C0.90
T2F00S00C1.00
T3F00S00C2.00
%
T01
X01297Y008795
Y00905
Y009305
Y009555
Y00981
T02
X01163Y00905
X011884
Y009304
X01163
X012138
X012392
X012646
Y00905
X012392
X012138
T03
X01244Y00556
X01287Y00694
Y00754
X01172Y00753
X01129Y00724
X01141Y00619
X01078
X0108Y00812
M30
