%FSLAX42Y42*%
%MOMM*%
G71*
G01*
G75*
G04 Layer_Physical_Order=2*
%ADD10C,0.25*%
%ADD11R,2.00X2.00*%
%ADD12R,1.25X1.50*%
%ADD13R,4.00X1.80*%
%ADD14R,2.00X4.00*%
%ADD15R,0.75X0.75*%
%ADD16R,1.25X2.80*%
%ADD17R,1.50X1.25*%
%ADD18R,0.91X0.91*%
%ADD19O,2.00X0.60*%
%ADD20R,0.91X1.27*%
%ADD21R,1.25X0.90*%
%ADD22R,0.90X1.25*%
%ADD23R,1.27X0.91*%
%ADD24O,4.00X2.00*%
%ADD25R,2.55X0.90*%
%ADD26O,0.50X2.00*%
%ADD27R,0.50X2.00*%
%ADD28R,1.27X0.51*%
%ADD29R,2.90X5.40*%
%ADD30R,1.50X1.50*%
%ADD31C,0.40*%
%ADD32C,0.25*%
%ADD33C,1.00*%
%ADD34C,1.50*%
%ADD35C,1.25*%
%ADD36C,2.00*%
%ADD37C,1.20*%
%ADD38R,3.48X3.98*%
%ADD39R,7.20X7.85*%
%ADD40R,4.13X2.98*%
%ADD41C,2.00*%
%ADD42R,1.00X1.00*%
%ADD43C,1.00*%
%ADD44C,1.75*%
%ADD45C,3.00*%
%ADD46C,0.30*%
%ADD47R,13.72X11.55*%
%ADD48R,2.02X3.98*%
D31*
X2098Y750D02*
Y1855D01*
X3583Y1090D02*
X3867D01*
X1812Y2140D02*
X2098Y1855D01*
Y1500D02*
X3048D01*
X1810Y2140D02*
Y2142D01*
X5297Y1752D02*
Y2645D01*
X5200Y1655D02*
X5297Y1752D01*
X1985Y2395D02*
X2375D01*
X3978Y2820D02*
X5122D01*
X3385Y2617D02*
X3775D01*
X3978Y2820D01*
X5122D02*
X5297Y2645D01*
X3730Y2692D02*
X3940Y2902D01*
X3220Y2692D02*
X3730D01*
X3110Y2583D02*
X3220Y2692D01*
X2948Y2780D02*
X3708D01*
X4075Y3148D01*
X2475Y2295D02*
X3062D01*
X3385Y2617D01*
X3165Y1652D02*
X3617Y1200D01*
X3950D02*
X4050Y1100D01*
X3617Y1200D02*
X3950D01*
X3341Y1332D02*
X3583Y1090D01*
X3048Y1500D02*
X3216Y1332D01*
X3341D01*
X4522Y985D02*
X4772Y735D01*
X4985D01*
X3533Y985D02*
X4522D01*
X3455Y907D02*
X4453D01*
X4692Y668D01*
X3117Y1245D02*
X3455Y907D01*
X2375Y2395D02*
X2475Y2295D01*
X1112Y977D02*
X1160Y930D01*
X1112Y977D02*
Y3728D01*
X1160Y750D02*
Y930D01*
X1520Y1817D02*
Y3027D01*
Y1817D02*
X1700Y1638D01*
X1520Y3027D02*
X1758Y3265D01*
X1915D02*
X2110Y3070D01*
Y2798D02*
X2515Y2392D01*
X2110Y2798D02*
Y3070D01*
X3317Y1200D02*
X3533Y985D01*
X4985Y735D02*
X5053Y802D01*
X2902Y2735D02*
X2948Y2780D01*
X4075Y3148D02*
X4867D01*
X5347Y2902D02*
X5645Y2605D01*
X3958Y2902D02*
X5347D01*
X2962Y1652D02*
X3165D01*
X5340Y1100D02*
X5645Y1405D01*
X4050Y1100D02*
X5340D01*
X1700Y1430D02*
Y1638D01*
X2515Y2392D02*
X2992D01*
X1760Y3265D02*
X1915D01*
D32*
X535Y750D02*
X660D01*
Y625D02*
Y750D01*
X785D01*
X660D02*
Y875D01*
X2485Y175D02*
Y300D01*
X2360D02*
X2485D01*
Y425D01*
X225Y2052D02*
X400D01*
Y1877D02*
Y2052D01*
X575D01*
X400D02*
Y2227D01*
X1910Y2650D02*
X1985D01*
X2060D01*
D34*
X1985Y300D02*
X2465Y780D01*
X3900D01*
X1160Y750D02*
X1610Y300D01*
X1985D01*
D41*
D03*
X2485D02*
D03*
X1160Y750D02*
D03*
X660D02*
D03*
D42*
X1985Y2905D02*
D03*
D43*
Y2777D02*
D03*
Y2650D02*
D03*
Y2523D02*
D03*
Y2395D02*
D03*
X4200Y1800D02*
D03*
Y1900D02*
D03*
Y2000D02*
D03*
Y2100D02*
D03*
Y2200D02*
D03*
X4500Y1700D02*
D03*
X4400D02*
D03*
X4300D02*
D03*
X4200D02*
D03*
Y2300D02*
D03*
X4300D02*
D03*
X4400D02*
D03*
X4500D02*
D03*
X4100Y1700D02*
D03*
Y1800D02*
D03*
Y1900D02*
D03*
Y2000D02*
D03*
Y2100D02*
D03*
Y2200D02*
D03*
Y2300D02*
D03*
X4000Y1700D02*
D03*
Y1800D02*
D03*
Y1900D02*
D03*
Y2000D02*
D03*
Y2100D02*
D03*
Y2200D02*
D03*
Y2300D02*
D03*
X3317Y1200D02*
D03*
X3117Y1245D02*
D03*
X2098Y750D02*
D03*
X2902Y2735D02*
D03*
X2962Y1652D02*
D03*
X3110Y2583D02*
D03*
X2992Y2392D02*
D03*
X4692Y668D02*
D03*
X3867Y1090D02*
D03*
X1277Y2992D02*
D03*
X1700Y1430D02*
D03*
X1343Y1380D02*
D03*
X938Y2205D02*
D03*
X1812Y2140D02*
D03*
X1314Y3274D02*
D03*
X1245Y2083D02*
D03*
X975Y1485D02*
D03*
X1510Y1445D02*
D03*
X5200Y1655D02*
D03*
X4867Y3148D02*
D03*
X5053Y802D02*
D03*
X3888Y657D02*
D03*
Y788D02*
D03*
Y528D02*
D03*
X2130Y3785D02*
D03*
X1923Y3515D02*
D03*
X2198Y3200D02*
D03*
X2215Y1600D02*
D03*
X2285Y875D02*
D03*
X1945Y1157D02*
D03*
X1675Y575D02*
D03*
X607Y3317D02*
D03*
X2967Y1002D02*
D03*
X1295Y932D02*
D03*
X880Y993D02*
D03*
X2212Y1293D02*
D03*
X1155Y495D02*
D03*
X1240Y1738D02*
D03*
X2995Y2200D02*
D03*
X3258Y2030D02*
D03*
X3565Y2292D02*
D03*
X4380Y2998D02*
D03*
X4000Y3725D02*
D03*
X4600D02*
D03*
X3897Y3123D02*
D03*
X5860Y2415D02*
D03*
X4317Y3730D02*
D03*
X4688Y3005D02*
D03*
X4353Y3400D02*
D03*
X4990Y3235D02*
D03*
X5835Y3838D02*
D03*
X5417Y1925D02*
D03*
X5870Y145D02*
D03*
X5858Y1992D02*
D03*
X4885Y865D02*
D03*
X5865Y595D02*
D03*
X5120Y1525D02*
D03*
X3875Y108D02*
D03*
X3090Y1835D02*
D03*
X4462Y93D02*
D03*
X2948Y2540D02*
D03*
X4167Y1200D02*
D03*
X4740Y177D02*
D03*
X5290Y530D02*
D03*
Y145D02*
D03*
X3425Y262D02*
D03*
X2538Y612D02*
D03*
X800Y478D02*
D03*
X5865Y1602D02*
D03*
X1760Y3265D02*
D03*
X1830Y1933D02*
D03*
X5835Y3415D02*
D03*
X173Y2808D02*
D03*
Y2315D02*
D03*
X167Y1792D02*
D03*
Y1293D02*
D03*
X160Y952D02*
D03*
X155Y607D02*
D03*
X150Y148D02*
D03*
X562Y115D02*
D03*
X155Y3285D02*
D03*
X160Y3855D02*
D03*
X610D02*
D03*
X1745D02*
D03*
X3572Y2895D02*
D03*
X3102D02*
D03*
X2585D02*
D03*
X2240Y125D02*
D03*
X1708Y108D02*
D03*
X1202D02*
D03*
X3080Y162D02*
D03*
X3160Y1523D02*
D03*
X2502Y1602D02*
D03*
X830Y2988D02*
D03*
D44*
X1112Y3728D02*
D03*
X857D02*
D03*
D45*
X5645Y2605D02*
D03*
Y2205D02*
D03*
Y1805D02*
D03*
Y1405D02*
D03*
X400Y1543D02*
D03*
Y2052D02*
D03*
Y2558D02*
D03*
Y3067D02*
D03*
D46*
X628Y400D02*
G03*
X628Y400I-228J0D01*
G01*
X800Y750D02*
G03*
X800Y750I-140J0D01*
G01*
X1529Y219D02*
G03*
X1610Y185I81J81D01*
G01*
X1529Y219D02*
G03*
X1610Y185I81J81D01*
G01*
X1052Y977D02*
G03*
X1070Y935I60J0D01*
G01*
X1052Y977D02*
G03*
X1070Y935I60J0D01*
G01*
X1100Y876D02*
G03*
X1135Y612I60J-126D01*
G01*
X1298Y775D02*
G03*
X1220Y876I-138J-25D01*
G01*
Y930D02*
G03*
X1202Y972I-60J0D01*
G01*
X1220Y930D02*
G03*
X1202Y972I-60J0D01*
G01*
X590Y1543D02*
G03*
X590Y1543I-190J0D01*
G01*
Y2052D02*
G03*
X590Y2052I-190J0D01*
G01*
X1460Y1817D02*
G03*
X1478Y1775I60J0D01*
G01*
X1460Y1817D02*
G03*
X1478Y1775I60J0D01*
G01*
X1905Y185D02*
G03*
X2123Y275I80J115D01*
G01*
X1960Y438D02*
G03*
X1905Y415I25J-138D01*
G01*
X2038Y817D02*
G03*
X2188Y750I60J-67D01*
G01*
G03*
X2158Y817I-90J0D01*
G01*
X2570Y411D02*
G03*
X2619Y261I-85J-111D01*
G01*
X3025Y403D02*
G03*
X2570Y411I-228J0D01*
G01*
X2619Y261D02*
G03*
X3025Y403I178J142D01*
G01*
X2465Y895D02*
G03*
X2384Y861I0J-115D01*
G01*
X2465Y895D02*
G03*
X2384Y861I0J-115D01*
G01*
X1640Y1497D02*
G03*
X1790Y1430I60J-67D01*
G01*
X1760Y1638D02*
G03*
X1742Y1680I-60J0D01*
G01*
X1760Y1638D02*
G03*
X1742Y1680I-60J0D01*
G01*
X1790Y1430D02*
G03*
X1760Y1497I-90J0D01*
G01*
X2158Y1855D02*
G03*
X2140Y1897I-60J0D01*
G01*
X2158Y1855D02*
G03*
X2140Y1897I-60J0D01*
G01*
X590Y2558D02*
G03*
X590Y2558I-190J0D01*
G01*
Y3067D02*
G03*
X590Y3067I-190J0D01*
G01*
X628Y3600D02*
G03*
X628Y3600I-228J0D01*
G01*
X985Y3728D02*
G03*
X985Y3728I-127J0D01*
G01*
X1173Y3615D02*
G03*
X1240Y3728I-60J112D01*
G01*
G03*
X1052Y3615I-127J0D01*
G01*
X1902Y2140D02*
G03*
X1818Y2050I-90J0D01*
G01*
X1902Y2135D02*
G03*
X1902Y2140I-90J5D01*
G01*
X1921Y2459D02*
G03*
X2052Y2335I64J-64D01*
G01*
Y2455D02*
G03*
X2049Y2459I-67J-60D01*
G01*
G03*
X2075Y2523I-64J64D01*
G01*
X1921Y2586D02*
G03*
X1921Y2459I64J-64D01*
G01*
Y2714D02*
G03*
X1921Y2586I64J-64D01*
G01*
X1903Y2815D02*
G03*
X1921Y2714I82J-38D01*
G01*
X2433Y2253D02*
G03*
X2475Y2235I42J42D01*
G01*
X2433Y2253D02*
G03*
X2475Y2235I42J42D01*
G01*
X2075Y2523D02*
G03*
X2049Y2586I-90J0D01*
G01*
Y2586D02*
G03*
X2075Y2650I-64J64D01*
G01*
G03*
X2049Y2714I-90J0D01*
G01*
G03*
X2071Y2751I-64J64D01*
G01*
X1478Y3070D02*
G03*
X1460Y3027I42J-42D01*
G01*
X1478Y3070D02*
G03*
X1460Y3027I42J-42D01*
G01*
X1753Y3175D02*
G03*
X1827Y3205I7J90D01*
G01*
Y3325D02*
G03*
X1670Y3262I-67J-60D01*
G01*
X2297Y3000D02*
G03*
X2350Y2947I53J0D01*
G01*
X2297Y3000D02*
G03*
X2350Y2947I53J0D01*
G01*
X1957Y3307D02*
G03*
X1915Y3325I-42J-42D01*
G01*
X1957Y3307D02*
G03*
X1915Y3325I-42J-42D01*
G01*
X2170Y3070D02*
G03*
X2152Y3112I-60J0D01*
G01*
X2170Y3070D02*
G03*
X2152Y3112I-60J0D01*
G01*
X3992Y1242D02*
G03*
X3950Y1260I-42J-42D01*
G01*
X3992Y1242D02*
G03*
X3950Y1260I-42J-42D01*
G01*
X4565Y1027D02*
G03*
X4546Y1040I-42J-42D01*
G01*
X4565Y1027D02*
G03*
X4546Y1040I-42J-42D01*
G01*
X3128Y1334D02*
G03*
X3123Y1155I-11J-89D01*
G01*
X3090Y1542D02*
G03*
X3048Y1560I-42J-42D01*
G01*
X3090Y1542D02*
G03*
X3048Y1560I-42J-42D01*
G01*
X3207Y1695D02*
G03*
X3165Y1712I-42J-42D01*
G01*
X3207Y1695D02*
G03*
X3165Y1712I-42J-42D01*
G01*
X3030D02*
G03*
X3030Y1593I-67J-60D01*
G01*
X4603Y673D02*
G03*
X4783Y668I90J-5D01*
G01*
G03*
X4782Y675I-90J0D01*
G01*
X4985D02*
G03*
X5027Y693I0J60D01*
G01*
X4985Y675D02*
G03*
X5027Y693I0J60D01*
G01*
X5142Y802D02*
G03*
X4963Y797I-90J0D01*
G01*
X5828Y400D02*
G03*
X5828Y400I-228J0D01*
G01*
X5047Y713D02*
G03*
X5142Y802I5J90D01*
G01*
X5340Y1040D02*
G03*
X5382Y1058I0J60D01*
G01*
X5340Y1040D02*
G03*
X5382Y1058I0J60D01*
G01*
X5290Y1655D02*
G03*
X5290Y1660I-90J0D01*
G01*
X5205Y1745D02*
G03*
X5290Y1655I-5J-90D01*
G01*
X5340Y1710D02*
G03*
X5358Y1752I-42J42D01*
G01*
X5340Y1710D02*
G03*
X5358Y1752I-42J42D01*
G01*
X5560Y1235D02*
G03*
X5835Y1405I85J170D01*
G01*
G03*
X5475Y1320I-190J0D01*
G01*
X5835Y1805D02*
G03*
X5835Y1805I-190J0D01*
G01*
X3082Y2400D02*
G03*
X2925Y2452I-90J-7D01*
G01*
X3062Y2235D02*
G03*
X3105Y2253I0J60D01*
G01*
X3062Y2235D02*
G03*
X3105Y2253I0J60D01*
G01*
X2908Y2825D02*
G03*
X2991Y2720I-5J-90D01*
G01*
X2948Y2840D02*
G03*
X2908Y2825I0J-60D01*
G01*
X2948Y2840D02*
G03*
X2908Y2825I0J-60D01*
G01*
X3200Y2583D02*
G03*
X3200Y2588I-90J0D01*
G01*
X3115Y2672D02*
G03*
X3200Y2583I-5J-90D01*
G01*
X3775Y2558D02*
G03*
X3817Y2575I0J60D01*
G01*
X3775Y2558D02*
G03*
X3817Y2575I0J60D01*
G01*
X3650Y2947D02*
G03*
X3703Y3000I0J53D01*
G01*
X3650Y2947D02*
G03*
X3703Y3000I0J53D01*
G01*
X4075Y3208D02*
G03*
X4033Y3190I0J-60D01*
G01*
X4075Y3208D02*
G03*
X4033Y3190I0J-60D01*
G01*
X4800Y3088D02*
G03*
X4958Y3148I67J60D01*
G01*
G03*
X4800Y3208I-90J0D01*
G01*
X5835Y2205D02*
G03*
X5835Y2205I-190J0D01*
G01*
X5358Y2645D02*
G03*
X5340Y2687I-60J0D01*
G01*
X5358Y2645D02*
G03*
X5340Y2687I-60J0D01*
G01*
X5390Y2945D02*
G03*
X5347Y2962I-42J-42D01*
G01*
X5390Y2945D02*
G03*
X5347Y2962I-42J-42D01*
G01*
X5475Y2690D02*
G03*
X5835Y2605I170J-85D01*
G01*
G03*
X5560Y2775I-190J0D01*
G01*
X5828Y3600D02*
G03*
X5828Y3600I-228J0D01*
G01*
X53Y240D02*
X238D01*
X53Y220D02*
X261D01*
X53Y300D02*
X195D01*
X53Y260D02*
X220D01*
X53Y280D02*
X206D01*
X190Y53D02*
Y312D01*
X230Y53D02*
Y249D01*
X210Y53D02*
Y275D01*
X53Y320D02*
X187D01*
X270Y53D02*
Y213D01*
X250Y53D02*
Y229D01*
X53Y360D02*
X176D01*
X53Y340D02*
X180D01*
X53Y380D02*
X173D01*
X53Y400D02*
X172D01*
X53Y420D02*
X173D01*
X53Y440D02*
X176D01*
X53Y460D02*
X180D01*
X53Y480D02*
X187D01*
X53Y500D02*
X195D01*
X53Y520D02*
X206D01*
X53Y540D02*
X220D01*
X310Y53D02*
Y191D01*
X330Y53D02*
Y183D01*
X53Y180D02*
X341D01*
X350Y53D02*
Y178D01*
X370Y53D02*
Y174D01*
X390Y53D02*
Y173D01*
X410Y53D02*
Y173D01*
X430Y53D02*
Y174D01*
X450Y53D02*
Y178D01*
X470Y53D02*
Y183D01*
X490Y53D02*
Y191D01*
X290Y53D02*
Y201D01*
X510Y53D02*
Y201D01*
X53Y200D02*
X291D01*
X509D02*
X1553D01*
X530Y53D02*
Y213D01*
X550Y53D02*
Y229D01*
X570Y53D02*
Y249D01*
X580Y260D02*
X1487D01*
X539Y220D02*
X1527D01*
X562Y240D02*
X1507D01*
X53Y560D02*
X238D01*
X53Y580D02*
X261D01*
X53Y600D02*
X291D01*
X53Y620D02*
X341D01*
X53Y640D02*
X573D01*
X530Y587D02*
Y698D01*
X570Y551D02*
Y643D01*
X550Y571D02*
Y663D01*
X53Y680D02*
X539D01*
X459Y620D02*
X608D01*
X53Y660D02*
X553D01*
X53Y720D02*
X523D01*
X53Y700D02*
X529D01*
X53Y740D02*
X520D01*
X53Y760D02*
X520D01*
X53Y780D02*
X523D01*
X53Y800D02*
X529D01*
X53Y820D02*
X539D01*
X53Y840D02*
X553D01*
X53Y860D02*
X573D01*
X53Y880D02*
X608D01*
X53Y920D02*
X1085D01*
X53Y900D02*
X1100D01*
X53Y980D02*
X1052D01*
X53Y940D02*
X1066D01*
X53Y960D02*
X1055D01*
X509Y600D02*
X1147D01*
X562Y560D02*
X1187D01*
X539Y580D02*
X1167D01*
X53Y1000D02*
X1052D01*
X53Y1020D02*
X1052D01*
X53Y1040D02*
X1052D01*
X53Y1060D02*
X1052D01*
X53Y1080D02*
X1052D01*
X53Y1100D02*
X1052D01*
X53Y1120D02*
X1052D01*
X53Y1140D02*
X1052D01*
X53Y1160D02*
X1052D01*
X53Y1180D02*
X1052D01*
X53Y1200D02*
X1052D01*
X53Y1220D02*
X1052D01*
X53Y1240D02*
X1052D01*
X53Y1260D02*
X1052D01*
X590Y53D02*
Y274D01*
X610Y53D02*
Y312D01*
X630Y53D02*
Y613D01*
X650Y53D02*
Y610D01*
X670Y53D02*
Y610D01*
X690Y53D02*
Y613D01*
X1170Y53D02*
Y577D01*
X1150Y53D02*
Y597D01*
X1190Y53D02*
Y557D01*
X1230Y53D02*
Y517D01*
X1210Y53D02*
Y537D01*
X710Y53D02*
Y619D01*
X730Y53D02*
Y629D01*
X750Y53D02*
Y643D01*
X770Y53D02*
Y663D01*
X790Y53D02*
Y698D01*
X1030Y53D02*
Y698D01*
X1070Y53D02*
Y643D01*
X1050Y53D02*
Y663D01*
X1090Y53D02*
Y629D01*
X1130Y53D02*
Y613D01*
X1110Y53D02*
Y619D01*
X1470Y53D02*
Y277D01*
X1490Y53D02*
Y257D01*
X1510Y53D02*
Y237D01*
X1530Y53D02*
Y217D01*
X1550Y53D02*
Y202D01*
X1570Y53D02*
Y192D01*
X1590Y53D02*
Y187D01*
X1610Y53D02*
Y185D01*
X1630Y53D02*
Y185D01*
X1250Y53D02*
Y497D01*
X1290Y53D02*
Y457D01*
X1270Y53D02*
Y477D01*
X1310Y53D02*
Y437D01*
X1330Y53D02*
Y417D01*
X1135Y612D02*
X1529Y219D01*
X1350Y53D02*
Y397D01*
X1390Y53D02*
Y357D01*
X1370Y53D02*
Y377D01*
X1410Y53D02*
Y337D01*
X1450Y53D02*
Y297D01*
X1430Y53D02*
Y317D01*
X590Y526D02*
Y629D01*
X610Y488D02*
Y619D01*
X747Y640D02*
X1073D01*
X791Y700D02*
X1029D01*
X767Y660D02*
X1053D01*
X781Y680D02*
X1039D01*
X797Y720D02*
X1023D01*
X800Y740D02*
X1020D01*
X800Y760D02*
X1020D01*
X781Y820D02*
X1039D01*
X767Y840D02*
X1053D01*
X747Y860D02*
X1073D01*
X712Y880D02*
X1100D01*
X797Y780D02*
X1023D01*
X791Y800D02*
X1029D01*
X1070Y857D02*
Y935D01*
X1090Y871D02*
Y915D01*
X605Y300D02*
X1447D01*
X594Y280D02*
X1467D01*
X613Y480D02*
X1267D01*
X613Y320D02*
X1427D01*
X620Y340D02*
X1407D01*
X628Y400D02*
X1347D01*
X624Y360D02*
X1387D01*
X627Y380D02*
X1367D01*
X620Y460D02*
X1287D01*
X627Y420D02*
X1327D01*
X624Y440D02*
X1307D01*
X580Y540D02*
X1207D01*
X605Y500D02*
X1247D01*
X594Y520D02*
X1227D01*
X1070Y935D02*
X1100Y905D01*
X712Y620D02*
X1108D01*
X1100Y876D02*
Y905D01*
X1220Y876D02*
Y930D01*
X1173Y1002D02*
X1202Y972D01*
X53Y1380D02*
X302D01*
X53Y1360D02*
X347D01*
X53Y1440D02*
X240D01*
X53Y1400D02*
X274D01*
X53Y1420D02*
X255D01*
X250Y571D02*
Y1426D01*
X290Y599D02*
Y1388D01*
X270Y587D02*
Y1404D01*
X310Y609D02*
Y1375D01*
X350Y622D02*
Y1359D01*
X330Y617D02*
Y1366D01*
X53Y53D02*
Y3947D01*
X70Y53D02*
Y3947D01*
X90Y53D02*
Y3947D01*
X53Y1460D02*
X229D01*
X110Y53D02*
Y3947D01*
X130Y53D02*
Y3947D01*
X150Y53D02*
Y3947D01*
X170Y53D02*
Y3947D01*
X190Y488D02*
Y3512D01*
X230Y551D02*
Y1458D01*
X210Y525D02*
Y3475D01*
X370Y626D02*
Y1355D01*
X53Y1280D02*
X1052D01*
X53Y1300D02*
X1052D01*
X53Y1320D02*
X1052D01*
X53Y1340D02*
X1052D01*
X390Y627D02*
Y1353D01*
X450Y622D02*
Y1359D01*
X470Y617D02*
Y1366D01*
X410Y627D02*
Y1353D01*
X430Y626D02*
Y1355D01*
X453Y1360D02*
X1052D01*
X490Y609D02*
Y1375D01*
X510Y599D02*
Y1388D01*
X498Y1380D02*
X1052D01*
X526Y1400D02*
X1052D01*
X530Y802D02*
Y1404D01*
X550Y837D02*
Y1426D01*
X570Y857D02*
Y1458D01*
X545Y1420D02*
X1052D01*
X560Y1440D02*
X1052D01*
X571Y1460D02*
X1052D01*
X53Y1480D02*
X221D01*
X53Y1500D02*
X215D01*
X53Y1520D02*
X211D01*
X53Y1540D02*
X210D01*
X53Y1560D02*
X211D01*
X53Y1580D02*
X214D01*
X53Y1600D02*
X219D01*
X53Y1620D02*
X227D01*
X53Y1640D02*
X237D01*
X53Y1660D02*
X251D01*
X53Y1680D02*
X269D01*
X230Y1627D02*
Y1968D01*
X250Y1659D02*
Y1936D01*
X270Y1681D02*
Y1914D01*
X53Y1700D02*
X294D01*
X53Y1720D02*
X332D01*
X290Y1697D02*
Y1898D01*
X330Y1719D02*
Y1876D01*
X310Y1710D02*
Y1885D01*
X350Y1726D02*
Y1869D01*
X370Y1730D02*
Y1865D01*
X390Y1732D02*
Y1863D01*
X53Y1740D02*
X1052D01*
X53Y1760D02*
X1052D01*
X53Y1780D02*
X1052D01*
X53Y1800D02*
X1052D01*
X53Y1820D02*
X1052D01*
X573Y1620D02*
X1052D01*
X563Y1640D02*
X1052D01*
X549Y1660D02*
X1052D01*
X531Y1680D02*
X1052D01*
X506Y1700D02*
X1052D01*
X468Y1720D02*
X1052D01*
X410Y1732D02*
Y1863D01*
X430Y1730D02*
Y1865D01*
X450Y1726D02*
Y1869D01*
X53Y1840D02*
X1052D01*
X53Y1860D02*
X1052D01*
X530Y1681D02*
Y1914D01*
X550Y1659D02*
Y1936D01*
X570Y1627D02*
Y1968D01*
X470Y1719D02*
Y1876D01*
X490Y1710D02*
Y1885D01*
X510Y1697D02*
Y1898D01*
X790Y802D02*
Y3619D01*
X810Y53D02*
Y3609D01*
X590Y871D02*
Y1541D01*
X610Y881D02*
Y3512D01*
X770Y837D02*
Y3635D01*
X830Y53D02*
Y3603D01*
X850Y53D02*
Y3600D01*
X870Y53D02*
Y3601D01*
X890Y53D02*
Y3604D01*
X910Y53D02*
Y3611D01*
X930Y53D02*
Y3623D01*
X630Y887D02*
Y3947D01*
X710Y881D02*
Y3947D01*
X650Y890D02*
Y3947D01*
X670Y890D02*
Y3947D01*
X690Y887D02*
Y3947D01*
X950Y53D02*
Y3640D01*
X970Y53D02*
Y3667D01*
X990Y53D02*
Y3692D01*
X730Y871D02*
Y3947D01*
X1010Y53D02*
Y3652D01*
X750Y857D02*
Y3659D01*
X1490Y583D02*
Y1763D01*
X1510Y563D02*
Y1743D01*
X1030Y802D02*
Y3630D01*
X1470Y603D02*
Y1784D01*
X1050Y837D02*
Y3616D01*
X1590Y483D02*
Y1663D01*
X1630Y443D02*
Y1373D01*
X1610Y463D02*
Y1643D01*
X1530Y543D02*
Y1723D01*
X1570Y503D02*
Y1683D01*
X1550Y523D02*
Y1703D01*
X1290Y802D02*
Y3947D01*
X1310Y763D02*
Y3947D01*
X1330Y743D02*
Y3947D01*
X1230Y871D02*
Y3678D01*
X1250Y857D02*
Y3947D01*
X1270Y837D02*
Y3947D01*
X1410Y663D02*
Y3947D01*
X1430Y643D02*
Y3947D01*
X1450Y623D02*
Y3947D01*
X1350Y723D02*
Y3947D01*
X1370Y703D02*
Y3947D01*
X1390Y683D02*
Y3947D01*
X579Y1480D02*
X1052D01*
X585Y1500D02*
X1052D01*
X589Y1520D02*
X1052D01*
X590Y1540D02*
X1052D01*
X581Y1600D02*
X1052D01*
X589Y1560D02*
X1052D01*
X586Y1580D02*
X1052D01*
X1173Y1740D02*
X1513D01*
X1173Y1800D02*
X1463D01*
X1173Y1760D02*
X1493D01*
X1173Y1780D02*
X1473D01*
X590Y1544D02*
Y2051D01*
X1052Y977D02*
Y3615D01*
X1173Y1820D02*
X1460D01*
X1173Y1840D02*
X1460D01*
X1173Y1860D02*
X1460D01*
X1173Y1002D02*
Y3615D01*
X1190Y985D02*
Y3626D01*
X1210Y963D02*
Y3645D01*
X1460Y1817D02*
Y3027D01*
X1173Y1380D02*
X1625D01*
X1173Y1360D02*
X1643D01*
X1173Y1420D02*
X1611D01*
X1173Y1400D02*
X1615D01*
X1173Y1440D02*
X1611D01*
X1173Y1460D02*
X1615D01*
X1173Y1480D02*
X1625D01*
X1173Y1500D02*
X1640D01*
X1173Y1520D02*
X1640D01*
X1173Y1540D02*
X1640D01*
X1173Y1560D02*
X1640D01*
X1173Y1660D02*
X1593D01*
X1173Y1620D02*
X1633D01*
X1173Y1640D02*
X1613D01*
X1173Y1720D02*
X1533D01*
X1173Y1680D02*
X1573D01*
X1173Y1700D02*
X1553D01*
X1630Y1487D02*
Y1623D01*
X1640Y1497D02*
Y1613D01*
X1630Y1792D02*
Y3053D01*
X1580Y1842D02*
Y3003D01*
X1590Y1832D02*
Y3013D01*
X1610Y1812D02*
Y3033D01*
X1650Y53D02*
Y185D01*
X1670Y53D02*
Y185D01*
X1690Y53D02*
Y185D01*
X1710Y53D02*
Y185D01*
X1730Y53D02*
Y185D01*
X1930Y53D02*
Y171D01*
X1970Y53D02*
Y161D01*
X1950Y53D02*
Y164D01*
X1990Y53D02*
Y160D01*
X2010Y53D02*
Y162D01*
X2030Y53D02*
Y167D01*
X1750Y53D02*
Y185D01*
X1770Y53D02*
Y185D01*
X1790Y53D02*
Y185D01*
X1610D02*
X1905D01*
X459Y180D02*
X1913D01*
X1810Y53D02*
Y185D01*
X1830Y53D02*
Y185D01*
X1850Y53D02*
Y185D01*
X1870Y53D02*
Y185D01*
X1890Y53D02*
Y185D01*
X1910Y53D02*
Y182D01*
X53Y53D02*
X5947D01*
X53Y60D02*
X5947D01*
X53Y80D02*
X5947D01*
X53Y100D02*
X5947D01*
X53Y120D02*
X5947D01*
X2050Y53D02*
Y176D01*
X53Y140D02*
X5947D01*
X2070Y53D02*
Y189D01*
X2083Y200D02*
X2387D01*
X53Y160D02*
X5947D01*
X2057Y180D02*
X2413D01*
X2090Y53D02*
Y207D01*
X2110Y53D02*
Y237D01*
X2100Y220D02*
X2370D01*
X2111Y240D02*
X2359D01*
X2130Y53D02*
Y282D01*
X2119Y260D02*
X2351D01*
X2150Y53D02*
Y302D01*
X2128Y280D02*
X2346D01*
X2148Y300D02*
X2345D01*
X2123Y275D02*
X2513Y665D01*
X1593Y480D02*
X2002D01*
X1573Y500D02*
X2022D01*
X1373Y700D02*
X2023D01*
X1553Y520D02*
X2042D01*
X1393Y680D02*
X2041D01*
X1658Y415D02*
X1905D01*
X1653Y420D02*
X1913D01*
X1633Y440D02*
X1962D01*
X1613Y460D02*
X1982D01*
X2030Y508D02*
Y690D01*
X1291Y800D02*
X2023D01*
X1281Y820D02*
X2038D01*
X1267Y840D02*
X2038D01*
X1247Y860D02*
X2038D01*
X1220Y880D02*
X2038D01*
X1298Y775D02*
X1658Y415D01*
X1353Y720D02*
X2013D01*
X2010Y488D02*
Y729D01*
X1333Y740D02*
X2008D01*
X1313Y760D02*
X2008D01*
X1297Y780D02*
X2013D01*
X1493Y580D02*
X2102D01*
X1473Y600D02*
X2122D01*
X1453Y620D02*
X2142D01*
X1433Y640D02*
X2162D01*
X1413Y660D02*
X2182D01*
X1533Y540D02*
X2062D01*
X1513Y560D02*
X2082D01*
X2070Y548D02*
Y664D01*
X2090Y568D02*
Y660D01*
X2110Y588D02*
Y661D01*
X2130Y608D02*
Y666D01*
X1220Y900D02*
X2038D01*
X1960Y438D02*
X2384Y861D01*
X1220Y920D02*
X2038D01*
X1219Y940D02*
X2038D01*
X1212Y960D02*
X2038D01*
X1195Y980D02*
X2038D01*
X2050Y528D02*
Y674D01*
X2150Y628D02*
Y677D01*
X2154Y680D02*
X2202D01*
X2158Y820D02*
X2342D01*
X2170Y53D02*
Y322D01*
X2190Y53D02*
Y342D01*
X2168Y320D02*
X2346D01*
X2188Y340D02*
X2351D01*
X2208Y360D02*
X2359D01*
X2210Y53D02*
Y362D01*
X2350Y53D02*
Y263D01*
X2230Y53D02*
Y382D01*
X2370Y53D02*
Y220D01*
X2410Y53D02*
Y182D01*
X2390Y53D02*
Y197D01*
X2250Y53D02*
Y402D01*
X2270Y53D02*
Y422D01*
X2228Y380D02*
X2370D01*
X2248Y400D02*
X2387D01*
X2268Y420D02*
X2413D01*
X2290Y53D02*
Y442D01*
X2310Y53D02*
Y462D01*
X2330Y53D02*
Y482D01*
X2350Y337D02*
Y502D01*
X2370Y380D02*
Y522D01*
X2390Y403D02*
Y542D01*
X2430Y53D02*
Y171D01*
X2450Y53D02*
Y164D01*
X2470Y53D02*
Y161D01*
X2490Y53D02*
Y160D01*
X2510Y53D02*
Y162D01*
X2530Y53D02*
Y167D01*
X2550Y53D02*
Y176D01*
X2570Y53D02*
Y189D01*
X2590Y53D02*
Y207D01*
X2557Y180D02*
X2749D01*
X2583Y200D02*
X2693D01*
X2570Y412D02*
Y665D01*
X2610Y53D02*
Y237D01*
X2650Y53D02*
Y229D01*
X2630Y53D02*
Y248D01*
X2611Y240D02*
X2638D01*
X2600Y220D02*
X2661D01*
X2410Y418D02*
Y562D01*
X2430Y429D02*
Y582D01*
X2170Y648D02*
Y697D01*
X2288Y440D02*
X2483D01*
X2450Y436D02*
Y602D01*
X2530Y433D02*
Y665D01*
X2557Y420D02*
X2570D01*
X2550Y424D02*
Y665D01*
X2470Y439D02*
Y622D01*
X2490Y440D02*
Y642D01*
X2510Y438D02*
Y662D01*
X2172Y700D02*
X2222D01*
X2172Y800D02*
X2322D01*
X2158Y840D02*
X2362D01*
X2158Y860D02*
X2382D01*
X2158Y880D02*
X2408D01*
X2182Y720D02*
X2242D01*
X2187Y740D02*
X2262D01*
X2187Y760D02*
X2282D01*
X2182Y780D02*
X2302D01*
X2308Y460D02*
X2577D01*
X2328Y480D02*
X2583D01*
X2348Y500D02*
X2592D01*
X2368Y520D02*
X2602D01*
X2388Y540D02*
X2616D01*
X2487Y440D02*
X2573D01*
X2408Y560D02*
X2633D01*
X2428Y580D02*
X2655D01*
X2448Y600D02*
X2684D01*
X2468Y620D02*
X2730D01*
X2488Y640D02*
X3745D01*
X2465Y895D02*
X3383D01*
X2508Y660D02*
X3745D01*
X2158Y900D02*
X3378D01*
X2158Y960D02*
X3318D01*
X2158Y920D02*
X3358D01*
X2158Y940D02*
X3338D01*
X2590Y496D02*
Y665D01*
X2610Y532D02*
Y665D01*
X2630Y557D02*
Y665D01*
X2650Y576D02*
Y665D01*
X2670Y591D02*
Y665D01*
X2513D02*
X3745D01*
X1670Y415D02*
Y1345D01*
X1690Y415D02*
Y1341D01*
X1650Y423D02*
Y1355D01*
X1710Y415D02*
Y1341D01*
X1730Y415D02*
Y1345D01*
X1750Y415D02*
Y1355D01*
X1770Y415D02*
Y1373D01*
X1790Y415D02*
Y1429D01*
X2038Y817D02*
Y1500D01*
X2030Y810D02*
Y1838D01*
X1810Y415D02*
Y2050D01*
X1830Y415D02*
Y2038D01*
X1850Y415D02*
Y2018D01*
X1890Y415D02*
Y1978D01*
X1870Y415D02*
Y1998D01*
X1910Y418D02*
Y1958D01*
X1950Y436D02*
Y1918D01*
X1930Y429D02*
Y1938D01*
X1970Y448D02*
Y1898D01*
X2010Y771D02*
Y1858D01*
X1990Y468D02*
Y1878D01*
X1175Y1000D02*
X2038D01*
X1173Y1020D02*
X2038D01*
X1173Y1040D02*
X2038D01*
X1173Y1060D02*
X2038D01*
X1173Y1080D02*
X2038D01*
X2158Y1020D02*
X3258D01*
X2158Y980D02*
X3298D01*
X2158Y1000D02*
X3278D01*
X1173Y1100D02*
X2038D01*
X2158Y1040D02*
X3238D01*
X1173Y1120D02*
X2038D01*
X1173Y1140D02*
X2038D01*
X1173Y1160D02*
X2038D01*
X1173Y1180D02*
X2038D01*
X1173Y1200D02*
X2038D01*
X1173Y1220D02*
X2038D01*
X1173Y1240D02*
X2038D01*
X1173Y1260D02*
X2038D01*
X1173Y1280D02*
X2038D01*
X1173Y1300D02*
X2038D01*
X1173Y1320D02*
X2038D01*
X1173Y1340D02*
X2038D01*
X1757Y1360D02*
X2038D01*
X1173Y1580D02*
X1640D01*
X1173Y1600D02*
X1640D01*
X1478Y1775D02*
X1640Y1613D01*
X1775Y1380D02*
X2038D01*
X1785Y1400D02*
X2038D01*
X1789Y1420D02*
X2038D01*
X1760Y1497D02*
Y1638D01*
X1789Y1440D02*
X2038D01*
X1670Y1752D02*
Y3093D01*
X1580Y1842D02*
X1742Y1680D01*
X1650Y1772D02*
Y3073D01*
X1582Y1840D02*
X2028D01*
X1580Y1860D02*
X2008D01*
X1750Y1671D02*
Y2075D01*
X1790Y1431D02*
Y2053D01*
X1770Y1487D02*
Y2061D01*
X1690Y1732D02*
Y3113D01*
X1730Y1692D02*
Y2104D01*
X1710Y1712D02*
Y3133D01*
X1760Y1500D02*
X2038D01*
X1760Y1520D02*
X2038D01*
X1760Y1540D02*
X2038D01*
X1760Y1560D02*
X2038D01*
X1756Y1660D02*
X2038D01*
X1785Y1460D02*
X2038D01*
X1775Y1480D02*
X2038D01*
X1760Y1580D02*
X2038D01*
X1760Y1600D02*
X2038D01*
X1760Y1620D02*
X2038D01*
X1760Y1640D02*
X2038D01*
X1702Y1720D02*
X2038D01*
X1682Y1740D02*
X2038D01*
X1662Y1760D02*
X2038D01*
X1642Y1780D02*
X2038D01*
X1622Y1800D02*
X2038D01*
X1602Y1820D02*
X2038D01*
Y1500D02*
Y1830D01*
X1742Y1680D02*
X2038D01*
X1722Y1700D02*
X2038D01*
X1818Y2050D02*
X2038Y1830D01*
X2190Y668D02*
Y1440D01*
X2210Y688D02*
Y1440D01*
X2158Y817D02*
Y1440D01*
X2170Y803D02*
Y1440D01*
X2230Y708D02*
Y1440D01*
X2250Y728D02*
Y1440D01*
X2270Y748D02*
Y1440D01*
X2290Y768D02*
Y1440D01*
X2310Y788D02*
Y1440D01*
X2330Y808D02*
Y1440D01*
X2350Y828D02*
Y1440D01*
X2370Y848D02*
Y1440D01*
X2390Y867D02*
Y1440D01*
X2410Y881D02*
Y1440D01*
X2430Y890D02*
Y1440D01*
X2450Y894D02*
Y1440D01*
X2470Y895D02*
Y1440D01*
X2490Y895D02*
Y1440D01*
X2510Y895D02*
Y1440D01*
X2530Y895D02*
Y1440D01*
X2550Y895D02*
Y1440D01*
X2570Y895D02*
Y1440D01*
X2158Y1080D02*
X3198D01*
X2158Y1060D02*
X3218D01*
X2158Y1140D02*
X3138D01*
X2158Y1100D02*
X3178D01*
X2158Y1120D02*
X3158D01*
X2158Y1200D02*
X3040D01*
X2158Y1160D02*
X3088D01*
X2158Y1180D02*
X3055D01*
X2158Y1220D02*
X3031D01*
X2158Y1240D02*
X3028D01*
X2158Y1260D02*
X3029D01*
X2158Y1280D02*
X3035D01*
X2158Y1300D02*
X3046D01*
X2158Y1320D02*
X3068D01*
X2158Y1380D02*
X3083D01*
X2158Y1340D02*
X3123D01*
X2158Y1360D02*
X3103D01*
X2590Y895D02*
Y1440D01*
X2610Y895D02*
Y1440D01*
X2630Y895D02*
Y1440D01*
X2650Y895D02*
Y1440D01*
X2158Y1400D02*
X3063D01*
X2670Y895D02*
Y1440D01*
X2158Y1560D02*
Y1855D01*
X2390Y1560D02*
Y2295D01*
X2410Y1560D02*
Y2275D01*
X2450Y1560D02*
Y2240D01*
X2430Y1560D02*
Y2255D01*
X2470Y1560D02*
Y2235D01*
X2490Y1560D02*
Y2235D01*
X2510Y1560D02*
Y2235D01*
X2530Y1560D02*
Y2235D01*
X2550Y1560D02*
Y2235D01*
X2570Y1560D02*
Y2235D01*
X2170Y1560D02*
Y2335D01*
X2190Y1560D02*
Y2335D01*
X2210Y1560D02*
Y2335D01*
X2230Y1560D02*
Y2335D01*
X2250Y1560D02*
Y2335D01*
X2270Y1560D02*
Y2335D01*
X2290Y1560D02*
Y2335D01*
X2310Y1560D02*
Y2335D01*
X2330Y1560D02*
Y2335D01*
X2370Y1560D02*
Y2315D01*
X2350Y1560D02*
Y2335D01*
X2158Y1440D02*
X3023D01*
X2158Y1420D02*
X3043D01*
X2158Y1580D02*
X2909D01*
X2158Y1440D02*
X3023D01*
X2158Y1560D02*
X3048D01*
X2158Y1640D02*
X2873D01*
X2158Y1600D02*
X2889D01*
X2158Y1620D02*
X2879D01*
X2158Y1660D02*
X2873D01*
X2158Y1680D02*
X2877D01*
X2158Y1700D02*
X2886D01*
X2158Y1720D02*
X2903D01*
X2158Y1740D02*
X2941D01*
X2158Y1760D02*
X3625D01*
X2158Y1780D02*
X3625D01*
X2158Y1800D02*
X3625D01*
X2158Y1820D02*
X3625D01*
X2590Y1560D02*
Y2235D01*
X2610Y1560D02*
Y2235D01*
X2630Y1560D02*
Y2235D01*
X2650Y1560D02*
Y2235D01*
X2158Y1840D02*
X3625D01*
X2670Y1560D02*
Y2235D01*
X53Y1920D02*
X264D01*
X53Y1900D02*
X287D01*
X53Y1980D02*
X224D01*
X53Y1940D02*
X247D01*
X53Y1960D02*
X234D01*
X53Y2020D02*
X213D01*
X53Y2000D02*
X217D01*
X53Y2040D02*
X210D01*
X53Y2060D02*
X210D01*
X53Y2080D02*
X212D01*
X53Y2100D02*
X216D01*
X53Y2120D02*
X222D01*
X53Y2140D02*
X231D01*
X53Y2160D02*
X243D01*
X53Y2180D02*
X259D01*
X53Y2200D02*
X280D01*
X230Y2137D02*
Y2474D01*
X270Y2191D02*
Y2420D01*
X250Y2169D02*
Y2442D01*
X290Y2207D02*
Y2404D01*
X53Y2220D02*
X310D01*
X310Y2220D02*
Y2391D01*
X53Y1880D02*
X320D01*
X53Y2240D02*
X369D01*
X53Y2260D02*
X1052D01*
X53Y2280D02*
X1052D01*
X480Y1880D02*
X1052D01*
X490Y2220D02*
X1052D01*
X431Y2240D02*
X1052D01*
X330Y2229D02*
Y2382D01*
X350Y2236D02*
Y2375D01*
X370Y2240D02*
Y2371D01*
X53Y2300D02*
X1052D01*
X53Y2320D02*
X1052D01*
X450Y2236D02*
Y2375D01*
X470Y2229D02*
Y2382D01*
X490Y2220D02*
Y2391D01*
X390Y2242D02*
Y2369D01*
X410Y2242D02*
Y2369D01*
X430Y2240D02*
Y2371D01*
X53Y2400D02*
X295D01*
X53Y2380D02*
X335D01*
X53Y2460D02*
X238D01*
X53Y2420D02*
X270D01*
X53Y2440D02*
X251D01*
X53Y2500D02*
X219D01*
X53Y2480D02*
X227D01*
X53Y2520D02*
X214D01*
X53Y2540D02*
X211D01*
X53Y2560D02*
X210D01*
X53Y2580D02*
X211D01*
X53Y2600D02*
X215D01*
X53Y2620D02*
X220D01*
X53Y2640D02*
X228D01*
X53Y2660D02*
X239D01*
X53Y2680D02*
X254D01*
X53Y2700D02*
X273D01*
X53Y2720D02*
X300D01*
X290Y2713D02*
Y2912D01*
X310Y2726D02*
Y2899D01*
X330Y2735D02*
Y2890D01*
X53Y2900D02*
X309D01*
X53Y2340D02*
X1052D01*
X53Y2360D02*
X1052D01*
X53Y2740D02*
X344D01*
X53Y2760D02*
X1052D01*
X53Y2780D02*
X1052D01*
X465Y2380D02*
X1052D01*
X456Y2740D02*
X1052D01*
X53Y2800D02*
X1052D01*
X53Y2820D02*
X1052D01*
X53Y2840D02*
X1052D01*
X350Y2742D02*
Y2883D01*
X370Y2746D02*
Y2879D01*
X390Y2748D02*
Y2877D01*
X53Y2880D02*
X364D01*
X53Y2860D02*
X1052D01*
X410Y2748D02*
Y2877D01*
X430Y2746D02*
Y2879D01*
X470Y2735D02*
Y2890D01*
X490Y2726D02*
Y2899D01*
X450Y2742D02*
Y2883D01*
X436Y2880D02*
X1052D01*
X491Y2900D02*
X1052D01*
X513Y1900D02*
X1052D01*
X536Y1920D02*
X1052D01*
X553Y1940D02*
X1052D01*
X566Y1960D02*
X1052D01*
X576Y1980D02*
X1052D01*
X583Y2000D02*
X1052D01*
X1173Y1880D02*
X1460D01*
X587Y2020D02*
X1052D01*
X590Y2040D02*
X1052D01*
X590Y2060D02*
X1052D01*
X588Y2080D02*
X1052D01*
X550Y2169D02*
Y2442D01*
X541Y2180D02*
X1052D01*
X510Y2207D02*
Y2404D01*
X520Y2200D02*
X1052D01*
X530Y2191D02*
Y2420D01*
X590Y2054D02*
Y2557D01*
X584Y2100D02*
X1052D01*
X578Y2120D02*
X1052D01*
X570Y2137D02*
Y2474D01*
X569Y2140D02*
X1052D01*
X557Y2160D02*
X1052D01*
X1173Y1900D02*
X1460D01*
X1173Y1920D02*
X1460D01*
X1173Y1940D02*
X1460D01*
X1173Y1960D02*
X1460D01*
X1173Y1980D02*
X1460D01*
X1173Y2000D02*
X1460D01*
X1173Y2020D02*
X1460D01*
X1173Y2040D02*
X1460D01*
X1173Y2060D02*
X1460D01*
X1173Y2080D02*
X1460D01*
X1173Y2100D02*
X1460D01*
X1173Y2120D02*
X1460D01*
X1173Y2140D02*
X1460D01*
X1173Y2160D02*
X1460D01*
X1173Y2180D02*
X1460D01*
X1173Y2200D02*
X1460D01*
X1173Y2220D02*
X1460D01*
X1173Y2240D02*
X1460D01*
X1173Y2260D02*
X1460D01*
X1173Y2280D02*
X1460D01*
X1173Y2300D02*
X1460D01*
X1173Y2320D02*
X1460D01*
X1173Y2340D02*
X1460D01*
X505Y2400D02*
X1052D01*
X530Y2420D02*
X1052D01*
X549Y2440D02*
X1052D01*
X562Y2460D02*
X1052D01*
X573Y2480D02*
X1052D01*
X1173Y2360D02*
X1460D01*
X1173Y2380D02*
X1460D01*
X1173Y2400D02*
X1460D01*
X581Y2500D02*
X1052D01*
X1173Y2420D02*
X1460D01*
X1173Y2440D02*
X1460D01*
X572Y2640D02*
X1052D01*
X561Y2660D02*
X1052D01*
X546Y2680D02*
X1052D01*
X527Y2700D02*
X1052D01*
X500Y2720D02*
X1052D01*
X586Y2520D02*
X1052D01*
X589Y2540D02*
X1052D01*
X590Y2560D02*
X1052D01*
X589Y2580D02*
X1052D01*
X585Y2600D02*
X1052D01*
X580Y2620D02*
X1052D01*
X1173Y2460D02*
X1460D01*
X1173Y2480D02*
X1460D01*
X1173Y2500D02*
X1460D01*
X1173Y2520D02*
X1460D01*
X1173Y2540D02*
X1460D01*
X1173Y2560D02*
X1460D01*
X1173Y2580D02*
X1460D01*
X1173Y2600D02*
X1460D01*
X1173Y2620D02*
X1460D01*
X1173Y2640D02*
X1460D01*
X1173Y2660D02*
X1460D01*
X1173Y2680D02*
X1460D01*
X1173Y2700D02*
X1460D01*
X1173Y2720D02*
X1460D01*
X1173Y2740D02*
X1460D01*
X1173Y2760D02*
X1460D01*
X1173Y2780D02*
X1460D01*
X1173Y2800D02*
X1460D01*
X1173Y2820D02*
X1460D01*
X1173Y2840D02*
X1460D01*
X1173Y2860D02*
X1460D01*
X1173Y2880D02*
X1460D01*
X1173Y2900D02*
X1460D01*
X53Y2940D02*
X258D01*
X53Y2920D02*
X279D01*
X53Y3000D02*
X222D01*
X53Y2960D02*
X243D01*
X53Y2980D02*
X231D01*
X230Y2643D02*
Y2982D01*
X270Y2697D02*
Y2928D01*
X250Y2675D02*
Y2950D01*
X53Y3040D02*
X212D01*
X53Y3020D02*
X216D01*
X53Y3060D02*
X210D01*
X53Y3080D02*
X210D01*
X53Y3100D02*
X213D01*
X53Y3120D02*
X218D01*
X53Y3140D02*
X225D01*
X53Y3160D02*
X235D01*
X230Y3151D02*
Y3449D01*
X53Y3180D02*
X248D01*
X250Y3183D02*
Y3429D01*
X53Y3200D02*
X265D01*
X53Y3220D02*
X288D01*
X270Y3205D02*
Y3413D01*
X53Y3240D02*
X323D01*
X53Y3260D02*
X1052D01*
X53Y3280D02*
X1052D01*
X53Y3300D02*
X1052D01*
X53Y3320D02*
X1052D01*
X510Y2713D02*
Y2912D01*
X512Y3220D02*
X1052D01*
X477Y3240D02*
X1052D01*
X53Y3340D02*
X1052D01*
X53Y3360D02*
X1052D01*
X290Y3221D02*
Y3401D01*
X310Y3234D02*
Y3391D01*
X330Y3243D02*
Y3383D01*
X350Y3250D02*
Y3378D01*
X370Y3254D02*
Y3374D01*
X430Y3254D02*
Y3374D01*
X470Y3243D02*
Y3383D01*
X490Y3234D02*
Y3391D01*
X390Y3256D02*
Y3373D01*
X410Y3256D02*
Y3373D01*
X450Y3250D02*
Y3378D01*
X53Y3440D02*
X238D01*
X53Y3420D02*
X261D01*
X53Y3500D02*
X195D01*
X53Y3460D02*
X220D01*
X53Y3480D02*
X206D01*
X53Y3560D02*
X176D01*
X53Y3520D02*
X187D01*
X53Y3540D02*
X180D01*
X53Y3580D02*
X173D01*
X53Y3600D02*
X172D01*
X53Y3620D02*
X173D01*
X53Y3640D02*
X176D01*
X53Y3660D02*
X180D01*
X53Y3680D02*
X187D01*
X53Y3700D02*
X195D01*
X53Y3720D02*
X206D01*
X190Y3688D02*
Y3947D01*
X53Y3740D02*
X220D01*
X210Y3725D02*
Y3947D01*
X230Y3751D02*
Y3947D01*
X53Y3760D02*
X238D01*
X250Y3771D02*
Y3947D01*
X53Y3400D02*
X291D01*
X53Y3380D02*
X341D01*
X53Y3780D02*
X261D01*
X53Y3800D02*
X291D01*
X53Y3820D02*
X341D01*
X459Y3380D02*
X1052D01*
X509Y3400D02*
X1052D01*
X509Y3800D02*
X753D01*
X459Y3820D02*
X770D01*
X53Y3840D02*
X797D01*
X270Y3787D02*
Y3947D01*
X290Y3799D02*
Y3947D01*
X310Y3809D02*
Y3947D01*
X330Y3817D02*
Y3947D01*
X350Y3822D02*
Y3947D01*
X370Y3826D02*
Y3947D01*
X390Y3827D02*
Y3947D01*
X470Y3817D02*
Y3947D01*
X490Y3809D02*
Y3947D01*
X410Y3827D02*
Y3947D01*
X430Y3826D02*
Y3947D01*
X450Y3822D02*
Y3947D01*
X530Y2697D02*
Y2928D01*
X550Y2675D02*
Y2950D01*
X510Y3221D02*
Y3401D01*
X521Y2920D02*
X1052D01*
X542Y2940D02*
X1052D01*
X570Y2643D02*
Y2982D01*
X557Y2960D02*
X1052D01*
X590Y2560D02*
Y3065D01*
X569Y2980D02*
X1052D01*
X578Y3000D02*
X1052D01*
X584Y3020D02*
X1052D01*
X570Y3151D02*
Y3449D01*
X590Y3068D02*
Y3474D01*
X530Y3205D02*
Y3413D01*
X550Y3183D02*
Y3429D01*
X624Y3640D02*
X765D01*
X627Y3620D02*
X789D01*
X926D02*
X1044D01*
X620Y3660D02*
X749D01*
X950Y3640D02*
X1020D01*
X966Y3660D02*
X1004D01*
X582Y3120D02*
X1052D01*
X575Y3140D02*
X1052D01*
X565Y3160D02*
X1052D01*
X552Y3180D02*
X1052D01*
X535Y3200D02*
X1052D01*
X588Y3040D02*
X1052D01*
X1173Y2920D02*
X1460D01*
X1173Y2940D02*
X1460D01*
X590Y3060D02*
X1052D01*
X590Y3080D02*
X1052D01*
X587Y3100D02*
X1052D01*
X539Y3420D02*
X1052D01*
X562Y3440D02*
X1052D01*
X580Y3460D02*
X1052D01*
X594Y3480D02*
X1052D01*
X605Y3500D02*
X1052D01*
X613Y3520D02*
X1052D01*
X620Y3540D02*
X1052D01*
X624Y3560D02*
X1052D01*
X627Y3580D02*
X1052D01*
X628Y3600D02*
X1052D01*
X550Y3771D02*
Y3947D01*
X562Y3760D02*
X734D01*
X510Y3799D02*
Y3947D01*
X539Y3780D02*
X741D01*
X530Y3787D02*
Y3947D01*
X605Y3700D02*
X733D01*
X613Y3680D02*
X739D01*
X594Y3720D02*
X730D01*
X570Y3751D02*
Y3947D01*
X580Y3740D02*
X731D01*
X590Y3726D02*
Y3947D01*
X610Y3688D02*
Y3947D01*
X750Y3796D02*
Y3947D01*
X770Y3820D02*
Y3947D01*
X790Y3836D02*
Y3947D01*
X810Y3846D02*
Y3947D01*
X830Y3852D02*
Y3947D01*
X910Y3844D02*
Y3947D01*
X930Y3832D02*
Y3947D01*
X850Y3855D02*
Y3947D01*
X870Y3854D02*
Y3947D01*
X890Y3851D02*
Y3947D01*
X974Y3780D02*
X996D01*
X962Y3800D02*
X1008D01*
X950Y3815D02*
Y3947D01*
X945Y3820D02*
X1025D01*
X918Y3840D02*
X1052D01*
X984Y3740D02*
X986D01*
X976Y3680D02*
X994D01*
X982Y3700D02*
X988D01*
X970Y3788D02*
Y3947D01*
X981Y3760D02*
X989D01*
X990Y3763D02*
Y3947D01*
X1010Y3803D02*
Y3947D01*
X1030Y3825D02*
Y3947D01*
X1050Y3839D02*
Y3947D01*
X1070Y3848D02*
Y3947D01*
X1090Y3853D02*
Y3947D01*
X1110Y3855D02*
Y3947D01*
X1190Y3829D02*
Y3947D01*
X1210Y3810D02*
Y3947D01*
X1230Y3777D02*
Y3947D01*
X1130Y3854D02*
Y3947D01*
X1150Y3849D02*
Y3947D01*
X1170Y3841D02*
Y3947D01*
X1580Y1920D02*
X1948D01*
X1580Y1900D02*
X1968D01*
X1580Y1980D02*
X1888D01*
X1580Y1940D02*
X1928D01*
X1580Y1960D02*
X1908D01*
X1580Y2040D02*
X1828D01*
X1580Y2000D02*
X1868D01*
X1580Y2020D02*
X1848D01*
X1580Y2100D02*
X1732D01*
X1580Y2060D02*
X1771D01*
X1580Y2080D02*
X1745D01*
X1580Y2120D02*
X1725D01*
X1580Y2140D02*
X1723D01*
X1580Y2160D02*
X1725D01*
X1580Y2180D02*
X1732D01*
X1580Y2200D02*
X1745D01*
X1950Y2087D02*
Y2312D01*
X1930Y2107D02*
Y2324D01*
X1580Y2220D02*
X1771D01*
X1910Y2127D02*
Y2345D01*
X1580Y1880D02*
X1988D01*
X1902Y2135D02*
X2140Y1897D01*
X1917Y2120D02*
X3625D01*
X1902Y2140D02*
X3625D01*
X1900Y2160D02*
X3625D01*
X2037Y2000D02*
X3625D01*
X2017Y2020D02*
X3625D01*
X1997Y2040D02*
X3625D01*
X1977Y2060D02*
X3625D01*
X1957Y2080D02*
X3625D01*
X1937Y2100D02*
X3625D01*
X1580Y2240D02*
X2451D01*
X1854Y2220D02*
X3625D01*
X1580Y2300D02*
X2385D01*
X1580Y2260D02*
X2425D01*
X1580Y2280D02*
X2405D01*
X1990Y2047D02*
Y2305D01*
X2010Y2027D02*
Y2309D01*
X2030Y2007D02*
Y2317D01*
X1970Y2067D02*
Y2306D01*
X1893Y2180D02*
X3625D01*
X1880Y2200D02*
X3625D01*
X1580Y2360D02*
X1902D01*
X1580Y2380D02*
X1896D01*
X1580Y2400D02*
X1895D01*
X1580Y2420D02*
X1899D01*
X1580Y2440D02*
X1907D01*
X1580Y2500D02*
X1898D01*
X1580Y2520D02*
X1895D01*
X1580Y2540D02*
X1897D01*
X1580Y2620D02*
X1900D01*
X1580Y2640D02*
X1896D01*
X1580Y2660D02*
X1896D01*
X1580Y2680D02*
X1900D01*
X1580Y2760D02*
X1897D01*
X1580Y2780D02*
X1895D01*
X1580Y2800D02*
X1898D01*
X1580Y2820D02*
X1895D01*
X1580Y2840D02*
X1895D01*
X1580Y2860D02*
X1895D01*
X1580Y2880D02*
X1895D01*
X1580Y2900D02*
X1895D01*
X1580Y2920D02*
X1895D01*
X1580Y2940D02*
X1895D01*
X1580Y2340D02*
X1914D01*
X1580Y2320D02*
X1935D01*
X1580Y2480D02*
X1906D01*
X1580Y2460D02*
X1920D01*
X1580Y2560D02*
X1903D01*
X1910Y2445D02*
Y2473D01*
X2035Y2320D02*
X2365D01*
X1580Y2580D02*
X1916D01*
X1580Y2600D02*
X1910D01*
X1580Y2700D02*
X1910D01*
X1580Y2720D02*
X1916D01*
X1580Y2740D02*
X1903D01*
X1910Y2572D02*
Y2600D01*
Y2700D02*
Y2728D01*
X1895Y2815D02*
X1903D01*
X2050Y1987D02*
Y2333D01*
X2070Y1967D02*
Y2335D01*
X2050Y2457D02*
Y2460D01*
X2070Y2455D02*
Y2493D01*
X2072Y2500D02*
X2323D01*
X2110Y1927D02*
Y2335D01*
X2130Y1907D02*
Y2335D01*
X2150Y1884D02*
Y2335D01*
X2090Y1947D02*
Y2335D01*
X2310Y2455D02*
Y2513D01*
X2075Y2520D02*
X2303D01*
X2090Y2455D02*
Y2733D01*
X2110Y2455D02*
Y2713D01*
X2130Y2455D02*
Y2693D01*
X2170Y2455D02*
Y2653D01*
X2150Y2455D02*
Y2673D01*
X2190Y2455D02*
Y2633D01*
X2230Y2455D02*
Y2593D01*
X2210Y2455D02*
Y2613D01*
X2250Y2455D02*
Y2573D01*
X2290Y2455D02*
Y2533D01*
X2270Y2455D02*
Y2553D01*
X2117Y1920D02*
X3625D01*
X2097Y1940D02*
X3625D01*
X2052Y2335D02*
X2350D01*
X2077Y1960D02*
X3625D01*
X2057Y1980D02*
X3625D01*
X2157Y1860D02*
X3625D01*
X2152Y1880D02*
X3625D01*
X2137Y1900D02*
X3625D01*
X2475Y2235D02*
X3062D01*
X2052Y2455D02*
X2368D01*
X2071Y2751D02*
X2368Y2455D01*
X2170Y2822D02*
X2540Y2452D01*
X2330Y2455D02*
Y2493D01*
X2050Y2460D02*
X2363D01*
X2064Y2480D02*
X2343D01*
X2350Y2455D02*
Y2473D01*
X2350Y2335D02*
X2433Y2253D01*
X2540Y2452D02*
X2925D01*
X2532Y2460D02*
X2933D01*
X2512Y2480D02*
X2971D01*
X2492Y2500D02*
X3074D01*
X2054Y2580D02*
X2243D01*
X2050Y2585D02*
Y2588D01*
X2060Y2600D02*
X2223D01*
X2070Y2552D02*
Y2620D01*
X2073Y2540D02*
X2283D01*
X2067Y2560D02*
X2263D01*
X2074Y2660D02*
X2163D01*
X2070Y2620D02*
X2203D01*
X2074Y2640D02*
X2183D01*
X2060Y2700D02*
X2123D01*
X2050Y2712D02*
Y2715D01*
X2054Y2720D02*
X2103D01*
X2350Y2642D02*
Y2947D01*
X2370Y2622D02*
Y2947D01*
X2390Y2602D02*
Y2947D01*
X2070Y2680D02*
Y2748D01*
X2070Y2680D02*
X2143D01*
X2067Y2740D02*
X2083D01*
X2332Y2660D02*
X2853D01*
X2352Y2640D02*
X3041D01*
X2272Y2720D02*
X2814D01*
X2312Y2680D02*
X2831D01*
X2292Y2700D02*
X2820D01*
X2432Y2560D02*
X3023D01*
X2472Y2520D02*
X3045D01*
X2452Y2540D02*
X3031D01*
X2412Y2580D02*
X3020D01*
X2392Y2600D02*
X3022D01*
X2372Y2620D02*
X3028D01*
X2172Y2820D02*
X2873D01*
X2170Y2840D02*
X2946D01*
X2170Y2860D02*
X3703D01*
X2170Y2880D02*
X3723D01*
X2170Y2900D02*
X3743D01*
X2170Y2920D02*
X3763D01*
X2410Y2582D02*
Y2947D01*
X2252Y2740D02*
X2813D01*
X2232Y2760D02*
X2816D01*
X2212Y2780D02*
X2825D01*
X2192Y2800D02*
X2840D01*
X2170Y2940D02*
X3783D01*
X1173Y2960D02*
X1460D01*
X1173Y2980D02*
X1460D01*
X1173Y3000D02*
X1460D01*
X1173Y3020D02*
X1460D01*
X1173Y3040D02*
X1461D01*
X1173Y3060D02*
X1470D01*
X1173Y3080D02*
X1488D01*
X1173Y3100D02*
X1508D01*
X1173Y3120D02*
X1528D01*
X1470Y3061D02*
Y3947D01*
X1173Y3140D02*
X1548D01*
X1173Y3160D02*
X1568D01*
X1173Y3180D02*
X1588D01*
X1173Y3200D02*
X1608D01*
X1490Y3082D02*
Y3947D01*
X1510Y3102D02*
Y3947D01*
X1530Y3122D02*
Y3947D01*
X1550Y3142D02*
Y3947D01*
X1570Y3162D02*
Y3947D01*
X1590Y3182D02*
Y3947D01*
X1580Y2960D02*
X1895D01*
X1580Y2980D02*
X1895D01*
X1580Y3000D02*
X2050D01*
X1597Y3020D02*
X2050D01*
X1617Y3040D02*
X2050D01*
X1730Y2176D02*
Y3153D01*
X1637Y3060D02*
X2035D01*
X1657Y3080D02*
X2015D01*
X1717Y3140D02*
X1955D01*
X1677Y3100D02*
X1995D01*
X1697Y3120D02*
X1975D01*
X1610Y3202D02*
Y3947D01*
X1580Y3003D02*
X1753Y3175D01*
X1478Y3070D02*
X1670Y3262D01*
X1173Y3220D02*
X1628D01*
X1173Y3240D02*
X1648D01*
X1630Y3222D02*
Y3947D01*
X1750Y2205D02*
Y3173D01*
X1770Y2219D02*
Y3176D01*
X1790Y2227D02*
Y3180D01*
X1737Y3160D02*
X1935D01*
X1790Y3180D02*
X1915D01*
X1173Y3260D02*
X1668D01*
X1173Y3280D02*
X1671D01*
X1173Y3300D02*
X1677D01*
X1173Y3320D02*
X1689D01*
X1173Y3340D02*
X1710D01*
X1173Y3360D02*
X2297D01*
X1173Y3380D02*
X2297D01*
X1173Y3400D02*
X2297D01*
X1173Y3420D02*
X2297D01*
X1173Y3440D02*
X2297D01*
X1650Y3242D02*
Y3947D01*
X1670Y3262D02*
Y3947D01*
X1173Y3460D02*
X2297D01*
X1173Y3480D02*
X2297D01*
X1173Y3500D02*
X2297D01*
X1690Y3322D02*
Y3947D01*
X1710Y3340D02*
Y3947D01*
X1730Y3350D02*
Y3947D01*
X1750Y3354D02*
Y3947D01*
X1770Y3354D02*
Y3947D01*
X1790Y3350D02*
Y3947D01*
X1173Y3520D02*
X2297D01*
X1173Y3540D02*
X2297D01*
X1173Y3560D02*
X2297D01*
X1173Y3580D02*
X2297D01*
X1173Y3600D02*
X2297D01*
X1181Y3620D02*
X2297D01*
X1205Y3640D02*
X2297D01*
X1221Y3660D02*
X2297D01*
X1231Y3680D02*
X2297D01*
X1237Y3700D02*
X2297D01*
X1240Y3720D02*
X2297D01*
X53Y3860D02*
X2297D01*
X53Y3880D02*
X2297D01*
X53Y3900D02*
X2297D01*
X53Y3920D02*
X2297D01*
X53Y3940D02*
X2297D01*
X53Y3947D02*
X2297D01*
X1239Y3740D02*
X2297D01*
X1236Y3760D02*
X2297D01*
X1229Y3780D02*
X2297D01*
X1217Y3800D02*
X2297D01*
X1200Y3820D02*
X2297D01*
X1173Y3840D02*
X2297D01*
X1895Y2815D02*
Y2995D01*
X2050D01*
X1930D02*
Y3165D01*
X1970Y2995D02*
Y3125D01*
X1950Y2995D02*
Y3145D01*
X1990Y2995D02*
Y3105D01*
X2170Y2822D02*
Y3070D01*
X2010Y2995D02*
Y3085D01*
X2030Y2995D02*
Y3065D01*
X2050Y2995D02*
Y3045D01*
X2050Y2995D02*
Y3045D01*
X1870Y2209D02*
Y3205D01*
X1890Y2186D02*
Y3205D01*
X1810Y2230D02*
Y3190D01*
X1830Y2228D02*
Y3205D01*
X1850Y2222D02*
Y3205D01*
X2230Y2762D02*
Y3947D01*
X2250Y2742D02*
Y3947D01*
X2270Y2722D02*
Y3947D01*
X1910Y2995D02*
Y3185D01*
X2190Y2802D02*
Y3947D01*
X2210Y2782D02*
Y3947D01*
X2490Y2502D02*
Y2947D01*
X2510Y2482D02*
Y2947D01*
X2430Y2562D02*
Y2947D01*
X2450Y2542D02*
Y2947D01*
X2470Y2522D02*
Y2947D01*
X2550Y2452D02*
Y2947D01*
X2570Y2452D02*
Y2947D01*
X2590Y2452D02*
Y2947D01*
X2530Y2462D02*
Y2947D01*
X2610Y2452D02*
Y2947D01*
X2630Y2452D02*
Y2947D01*
X2290Y2702D02*
Y3947D01*
X2170Y2980D02*
X2301D01*
X2170Y2960D02*
X2316D01*
X2170Y3000D02*
X2297D01*
X2330Y2662D02*
Y2951D01*
X2650Y2452D02*
Y2947D01*
X2670Y2452D02*
Y2947D01*
X2297Y3000D02*
Y3947D01*
X2350Y2947D02*
X3650D01*
X2310Y2682D02*
Y2966D01*
X1827Y3205D02*
X1890D01*
X1822Y3200D02*
X1895D01*
X1810Y3340D02*
Y3947D01*
X1827Y3325D02*
X1915D01*
X1830D02*
Y3947D01*
X1890Y3205D02*
X2050Y3045D01*
X1850Y3325D02*
Y3947D01*
X1870Y3325D02*
Y3947D01*
X1890Y3325D02*
Y3947D01*
X1970Y3295D02*
Y3947D01*
X1990Y3275D02*
Y3947D01*
X1910Y3325D02*
Y3947D01*
X1930Y3323D02*
Y3947D01*
X1950Y3314D02*
Y3947D01*
X2070Y3195D02*
Y3947D01*
X2090Y3175D02*
Y3947D01*
X2110Y3155D02*
Y3947D01*
X2010Y3255D02*
Y3947D01*
X2030Y3235D02*
Y3947D01*
X2050Y3215D02*
Y3947D01*
X2145Y3120D02*
X2297D01*
X2125Y3140D02*
X2297D01*
X2105Y3160D02*
X2297D01*
X2085Y3180D02*
X2297D01*
X2170Y3020D02*
X2297D01*
X2170Y3040D02*
X2297D01*
X2170Y3060D02*
X2297D01*
X2169Y3080D02*
X2297D01*
X2162Y3100D02*
X2297D01*
X1957Y3307D02*
X2152Y3112D01*
X2005Y3260D02*
X2297D01*
X1985Y3280D02*
X2297D01*
X1965Y3300D02*
X2297D01*
X1939Y3320D02*
X2297D01*
X1810Y3340D02*
X2297D01*
X2130Y3135D02*
Y3947D01*
X2150Y3115D02*
Y3947D01*
X2170Y3071D02*
Y3947D01*
X2065Y3200D02*
X2297D01*
X2045Y3220D02*
X2297D01*
X2025Y3240D02*
X2297D01*
X2690Y53D02*
Y202D01*
X2710Y53D02*
Y192D01*
X2730Y53D02*
Y185D01*
X2770Y53D02*
Y176D01*
X2750Y53D02*
Y180D01*
X2790Y53D02*
Y175D01*
X2810Y53D02*
Y175D01*
X2830Y53D02*
Y177D01*
X2850Y53D02*
Y181D01*
X2870Y53D02*
Y187D01*
X2890Y53D02*
Y194D01*
X2670Y53D02*
Y214D01*
X2910Y53D02*
Y205D01*
X2930Y53D02*
Y217D01*
X2950Y53D02*
Y233D01*
X2970Y53D02*
Y254D01*
X2990Y53D02*
Y281D01*
X3010Y53D02*
Y321D01*
X3030Y53D02*
Y665D01*
X3050Y53D02*
Y665D01*
X3070Y53D02*
Y665D01*
X3090Y53D02*
Y665D01*
X3110Y53D02*
Y665D01*
X3130Y53D02*
Y665D01*
X3150Y53D02*
Y665D01*
X3022Y440D02*
X3745D01*
X3170Y53D02*
Y665D01*
X3190Y53D02*
Y665D01*
X3210Y53D02*
Y665D01*
X3230Y53D02*
Y665D01*
X3250Y53D02*
Y665D01*
X3270Y53D02*
Y665D01*
X3290Y53D02*
Y665D01*
X3310Y53D02*
Y665D01*
X3330Y53D02*
Y665D01*
X3350Y53D02*
Y665D01*
X3370Y53D02*
Y665D01*
X3390Y53D02*
Y665D01*
X3410Y53D02*
Y665D01*
X3430Y53D02*
Y665D01*
X3450Y53D02*
Y665D01*
X3470Y53D02*
Y665D01*
X3490Y53D02*
Y665D01*
X3510Y53D02*
Y665D01*
X2690Y603D02*
Y665D01*
X2710Y613D02*
Y665D01*
X2730Y620D02*
Y665D01*
X2750Y625D02*
Y665D01*
X2770Y629D02*
Y665D01*
X2850Y624D02*
Y665D01*
X2870Y618D02*
Y665D01*
X2890Y611D02*
Y665D01*
X2790Y630D02*
Y665D01*
X2810Y630D02*
Y665D01*
X2830Y628D02*
Y665D01*
X2970Y551D02*
Y665D01*
X2990Y524D02*
Y665D01*
X2910Y600D02*
Y665D01*
X2930Y588D02*
Y665D01*
X2950Y572D02*
Y665D01*
X3010Y484D02*
Y665D01*
X3050Y895D02*
Y1185D01*
X3030Y895D02*
Y1224D01*
X3070Y895D02*
Y1169D01*
X3090Y895D02*
Y1159D01*
X3110Y895D02*
Y1155D01*
X2979Y540D02*
X3745D01*
X2962Y560D02*
X3745D01*
X2940Y580D02*
X3745D01*
X2911Y600D02*
X3745D01*
X2865Y620D02*
X3745D01*
X3018Y460D02*
X3745D01*
X3012Y480D02*
X3745D01*
X3003Y500D02*
X3745D01*
X3350Y895D02*
Y928D01*
X2993Y520D02*
X3745D01*
X3370Y895D02*
Y908D01*
X3130Y895D02*
Y1148D01*
X3150Y895D02*
Y1128D01*
X3123Y1155D02*
X3383Y895D01*
X3170D02*
Y1108D01*
X3210Y895D02*
Y1068D01*
X3190Y895D02*
Y1088D01*
X3230Y895D02*
Y1048D01*
X3270Y895D02*
Y1008D01*
X3250Y895D02*
Y1028D01*
X3290Y895D02*
Y988D01*
X3330Y895D02*
Y948D01*
X3310Y895D02*
Y968D01*
X3750Y53D02*
Y420D01*
X3770Y53D02*
Y420D01*
X3790Y53D02*
Y420D01*
X3810Y53D02*
Y420D01*
X3830Y53D02*
Y420D01*
X3850Y53D02*
Y420D01*
X3870Y53D02*
Y420D01*
X3890Y53D02*
Y420D01*
X3910Y53D02*
Y420D01*
X3930Y53D02*
Y420D01*
X3950Y53D02*
Y420D01*
X3530Y53D02*
Y665D01*
X3550Y53D02*
Y665D01*
X3570Y53D02*
Y665D01*
X3590Y53D02*
Y665D01*
X3610Y53D02*
Y665D01*
X3630Y53D02*
Y665D01*
X3650Y53D02*
Y665D01*
X3670Y53D02*
Y665D01*
X3690Y53D02*
Y665D01*
X3710Y53D02*
Y665D01*
X3730Y53D02*
Y665D01*
X3970Y53D02*
Y420D01*
X3990Y53D02*
Y420D01*
X4010Y53D02*
Y420D01*
X4030Y53D02*
Y848D01*
X4050Y53D02*
Y848D01*
X4070Y53D02*
Y848D01*
X4090Y53D02*
Y848D01*
X4110Y53D02*
Y848D01*
X4130Y53D02*
Y848D01*
X4150Y53D02*
Y848D01*
X4170Y53D02*
Y848D01*
X4190Y53D02*
Y848D01*
X4210Y53D02*
Y848D01*
X4230Y53D02*
Y848D01*
X4250Y53D02*
Y848D01*
X4270Y53D02*
Y848D01*
X4290Y53D02*
Y848D01*
X4310Y53D02*
Y848D01*
X4330Y53D02*
Y848D01*
X4350Y53D02*
Y848D01*
X4370Y53D02*
Y848D01*
X4390Y53D02*
Y848D01*
X4410Y53D02*
Y848D01*
X3745Y420D02*
Y665D01*
Y420D02*
X4028D01*
X3642Y1260D02*
X3950D01*
X4028Y820D02*
X4455D01*
X3992Y1242D02*
X4075Y1160D01*
X4430Y53D02*
Y845D01*
X4470Y53D02*
Y805D01*
X4450Y53D02*
Y825D01*
X4028Y420D02*
Y848D01*
Y840D02*
X4435D01*
X4028Y848D02*
X4428D01*
X3650Y1260D02*
Y1298D01*
X3670Y1260D02*
Y1298D01*
X3602Y1300D02*
X3625D01*
X3630Y1272D02*
Y1298D01*
X3690Y1260D02*
Y1298D01*
X3710Y1260D02*
Y1298D01*
X3730Y1260D02*
Y1298D01*
X3750Y1260D02*
Y1298D01*
X3770Y1260D02*
Y1298D01*
X4028Y640D02*
X4607D01*
X4028Y660D02*
X4603D01*
X4028Y720D02*
X4555D01*
X4028Y680D02*
X4595D01*
X4028Y700D02*
X4575D01*
X4530Y53D02*
Y745D01*
X4570Y53D02*
Y705D01*
X4550Y53D02*
Y725D01*
X4028Y740D02*
X4535D01*
X4610Y53D02*
Y632D01*
X4590Y53D02*
Y685D01*
X4490Y53D02*
Y785D01*
X4510Y53D02*
Y765D01*
X4428Y848D02*
X4603Y673D01*
X4028Y800D02*
X4475D01*
X4028Y760D02*
X4515D01*
X4028Y780D02*
X4495D01*
X4570Y1022D02*
Y1040D01*
X4590Y1002D02*
Y1040D01*
X4610Y982D02*
Y1040D01*
X4550Y1038D02*
Y1040D01*
X2690Y895D02*
Y1440D01*
X2710Y895D02*
Y1440D01*
X2730Y895D02*
Y1440D01*
X2750Y895D02*
Y1440D01*
X2770Y895D02*
Y1440D01*
X2790Y895D02*
Y1440D01*
X3030Y1266D02*
Y1433D01*
X2810Y895D02*
Y1440D01*
X3050Y1305D02*
Y1413D01*
X3090Y1331D02*
Y1373D01*
X3070Y1321D02*
Y1393D01*
X2830Y895D02*
Y1440D01*
X2850Y895D02*
Y1440D01*
X2870Y895D02*
Y1440D01*
X2890Y895D02*
Y1440D01*
X2910Y895D02*
Y1440D01*
X2930Y895D02*
Y1440D01*
X2950Y895D02*
Y1440D01*
X2970Y895D02*
Y1440D01*
X2990Y895D02*
Y1440D01*
X3010Y895D02*
Y1440D01*
X3070Y1556D02*
Y1593D01*
X3023Y1440D02*
X3128Y1334D01*
X3110Y1335D02*
Y1353D01*
X3132Y1500D02*
X3233D01*
X3112Y1520D02*
X3213D01*
X3210Y1422D02*
Y1523D01*
X3212Y1420D02*
X3313D01*
X3192Y1440D02*
X3293D01*
X3190Y1442D02*
Y1543D01*
X3172Y1460D02*
X3273D01*
X3152Y1480D02*
X3253D01*
X3090Y1542D02*
X3240Y1392D01*
X3092Y1540D02*
X3193D01*
X3090Y1542D02*
Y1593D01*
X3170Y1462D02*
Y1563D01*
X3140Y1593D02*
X3341Y1392D01*
X3207Y1695D02*
X3642Y1260D01*
X3110Y1522D02*
Y1593D01*
X3150Y1482D02*
Y1583D01*
X3130Y1502D02*
Y1593D01*
X2690Y1560D02*
Y2235D01*
X2710Y1560D02*
Y2235D01*
X2730Y1560D02*
Y2235D01*
X2750Y1560D02*
Y2235D01*
X2770Y1560D02*
Y2235D01*
X2890Y1560D02*
Y1599D01*
X2930Y1560D02*
Y1569D01*
X2910Y1560D02*
Y1579D01*
X2950Y1560D02*
Y1563D01*
X2970Y1560D02*
Y1563D01*
X2990Y1560D02*
Y1567D01*
X2790Y1560D02*
Y2235D01*
X2810Y1560D02*
Y2235D01*
X2830Y1560D02*
Y2235D01*
X2850Y1560D02*
Y2235D01*
X2870Y1560D02*
Y2235D01*
X2890Y1706D02*
Y2235D01*
X2910Y1726D02*
Y2235D01*
X2930Y1736D02*
Y2235D01*
X2950Y1742D02*
Y2235D01*
X2970Y1742D02*
Y2235D01*
X2990Y1738D02*
Y2235D01*
X3010Y1560D02*
Y1576D01*
X3030Y1560D02*
Y1593D01*
X3030D02*
X3140D01*
X3016Y1580D02*
X3153D01*
X3022Y1720D02*
X3625D01*
X3050Y1560D02*
Y1593D01*
X3049Y1560D02*
X3173D01*
X3030Y1712D02*
X3165D01*
X3202Y1700D02*
X3625D01*
X3030Y1712D02*
Y2235D01*
X3050Y1712D02*
Y2235D01*
X3010Y1729D02*
Y2235D01*
X2984Y1740D02*
X3625D01*
X3070Y1712D02*
Y2235D01*
X3090Y1712D02*
Y2242D01*
X3110Y1712D02*
Y2258D01*
X3130Y1712D02*
Y2278D01*
X3150Y1712D02*
Y2298D01*
X3170Y1712D02*
Y2318D01*
X3190Y1707D02*
Y2338D01*
X3790Y1260D02*
Y1298D01*
X3810Y1260D02*
Y1298D01*
X3830Y1260D02*
Y1298D01*
X3850Y1260D02*
Y1298D01*
X3870Y1260D02*
Y1298D01*
X3890Y1260D02*
Y1298D01*
X3970Y1257D02*
Y1298D01*
X3990Y1245D02*
Y1298D01*
X3910Y1260D02*
Y1298D01*
X3930Y1260D02*
Y1298D01*
X3950Y1260D02*
Y1298D01*
X3610Y1292D02*
Y2558D01*
X4010Y1225D02*
Y1298D01*
X3590Y1312D02*
Y2558D01*
X3582Y1320D02*
X3625D01*
Y1298D02*
Y2533D01*
X4070Y1165D02*
Y1298D01*
X4090Y1160D02*
Y1298D01*
X4110Y1160D02*
Y1298D01*
X4030Y1205D02*
Y1298D01*
X4050Y1185D02*
Y1298D01*
X4130Y1160D02*
Y1298D01*
X4150Y1160D02*
Y1298D01*
X4170Y1160D02*
Y1298D01*
X4190Y1160D02*
Y1298D01*
X4210Y1160D02*
Y1298D01*
X4230Y1160D02*
Y1298D01*
X4250Y1160D02*
Y1298D01*
X4270Y1160D02*
Y1298D01*
X4290Y1160D02*
Y1298D01*
X4310Y1160D02*
Y1298D01*
X4330Y1160D02*
Y1298D01*
X4350Y1160D02*
Y1298D01*
X4370Y1160D02*
Y1298D01*
X4390Y1160D02*
Y1298D01*
X4410Y1160D02*
Y1298D01*
X4430Y1160D02*
Y1298D01*
X4450Y1160D02*
Y1298D01*
X4470Y1160D02*
Y1298D01*
X4490Y1160D02*
Y1298D01*
X4510Y1160D02*
Y1298D01*
X4530Y1160D02*
Y1298D01*
X4550Y1160D02*
Y1298D01*
X4570Y1160D02*
Y1298D01*
X4590Y1160D02*
Y1298D01*
X3230Y1402D02*
Y1503D01*
X3240Y1392D02*
X3341D01*
X3210Y1692D02*
Y2358D01*
X3232Y1400D02*
X3333D01*
X3230Y1672D02*
Y2378D01*
X3250Y1392D02*
Y1483D01*
X3290Y1392D02*
Y1443D01*
X3270Y1392D02*
Y1463D01*
X3250Y1652D02*
Y2398D01*
X3330Y1392D02*
Y1403D01*
X3310Y1392D02*
Y1423D01*
X3330Y1572D02*
Y2478D01*
X3350Y1552D02*
Y2498D01*
X3270Y1632D02*
Y2418D01*
X3290Y1612D02*
Y2438D01*
X3310Y1592D02*
Y2458D01*
X3430Y1472D02*
Y2558D01*
X3450Y1452D02*
Y2558D01*
X3470Y1432D02*
Y2558D01*
X3370Y1532D02*
Y2518D01*
X3390Y1512D02*
Y2538D01*
X3410Y1492D02*
Y2558D01*
X3442Y1460D02*
X3625D01*
X3422Y1480D02*
X3625D01*
X3402Y1500D02*
X3625D01*
X3382Y1520D02*
X3625D01*
X3362Y1540D02*
X3625D01*
X3562Y1340D02*
X3625D01*
X3542Y1360D02*
X3625D01*
X3522Y1380D02*
X3625D01*
X3502Y1400D02*
X3625D01*
X3482Y1420D02*
X3625D01*
X3462Y1440D02*
X3625D01*
X3322Y1580D02*
X3625D01*
X3302Y1600D02*
X3625D01*
X3282Y1620D02*
X3625D01*
X3262Y1640D02*
X3625D01*
X3242Y1660D02*
X3625D01*
X3222Y1680D02*
X3625D01*
X3530Y1372D02*
Y2558D01*
X3550Y1352D02*
Y2558D01*
X3570Y1332D02*
Y2558D01*
X3490Y1412D02*
Y2558D01*
X3342Y1560D02*
X3625D01*
X3510Y1392D02*
Y2558D01*
X4630Y53D02*
Y603D01*
X4650Y53D02*
Y588D01*
X4028Y600D02*
X4633D01*
X4670Y53D02*
Y580D01*
X4028Y580D02*
X4671D01*
X4690Y53D02*
Y578D01*
X4710Y53D02*
Y579D01*
X4730Y53D02*
Y586D01*
X4750Y53D02*
Y598D01*
X4770Y53D02*
Y622D01*
X4790Y53D02*
Y675D01*
X4810Y53D02*
Y675D01*
X4830Y53D02*
Y675D01*
X4850Y53D02*
Y675D01*
X4870Y53D02*
Y675D01*
X4890Y53D02*
Y675D01*
X4910Y53D02*
Y675D01*
X4930Y53D02*
Y675D01*
X4950Y53D02*
Y675D01*
X4970Y53D02*
Y675D01*
X4990Y53D02*
Y675D01*
X2902Y200D02*
X5491D01*
X2846Y180D02*
X5541D01*
X2975Y260D02*
X5420D01*
X2934Y220D02*
X5461D01*
X2957Y240D02*
X5438D01*
X3010Y320D02*
X5387D01*
X2989Y280D02*
X5406D01*
X3001Y300D02*
X5395D01*
X3016Y340D02*
X5380D01*
X3021Y360D02*
X5376D01*
X3024Y380D02*
X5373D01*
X3025Y400D02*
X5372D01*
X3025Y420D02*
X5373D01*
X4028Y440D02*
X5376D01*
X4028Y460D02*
X5380D01*
X4028Y480D02*
X5387D01*
X4028Y500D02*
X5395D01*
X4028Y520D02*
X5406D01*
X4028Y540D02*
X5420D01*
X4028Y560D02*
X5438D01*
X4714Y580D02*
X5461D01*
X4752Y600D02*
X5491D01*
X4028Y620D02*
X4616D01*
X4565Y1027D02*
X4797Y795D01*
X4630Y962D02*
Y1040D01*
X4650Y942D02*
Y1040D01*
X4670Y922D02*
Y1040D01*
X4797Y795D02*
X4960D01*
X4963Y797D01*
X4690Y902D02*
Y1040D01*
X4710Y882D02*
Y1040D01*
X4730Y862D02*
Y1040D01*
X4810Y795D02*
Y1040D01*
X4830Y795D02*
Y1040D01*
X4750Y842D02*
Y1040D01*
X4770Y822D02*
Y1040D01*
X4790Y802D02*
Y1040D01*
X4850Y795D02*
Y1040D01*
X4870Y795D02*
Y1040D01*
X4890Y795D02*
Y1040D01*
X4910Y795D02*
Y1040D01*
X4930Y795D02*
Y1040D01*
X4950Y795D02*
Y1040D01*
X4769Y620D02*
X5541D01*
X4778Y640D02*
X5947D01*
X4752Y840D02*
X4971D01*
X4732Y860D02*
X4983D01*
X4712Y880D02*
X5007D01*
X4782Y675D02*
X4985D01*
X4782Y660D02*
X5947D01*
X4792Y800D02*
X4963D01*
X4772Y820D02*
X4964D01*
X4632Y960D02*
X5947D01*
X4612Y980D02*
X5947D01*
X4592Y1000D02*
X5947D01*
X4546Y1040D02*
X5340D01*
X4572Y1020D02*
X5947D01*
X4547Y1040D02*
X5947D01*
X4970Y838D02*
Y1040D01*
X4990Y867D02*
Y1040D01*
X4692Y900D02*
X5947D01*
X4672Y920D02*
X5947D01*
X4652Y940D02*
X5947D01*
X5010Y53D02*
Y680D01*
X5030Y53D02*
Y695D01*
X5050Y53D02*
Y713D01*
X5070Y53D02*
Y714D01*
X5090Y53D02*
Y721D01*
X5110Y53D02*
Y733D01*
X5130Y53D02*
Y757D01*
X5150Y53D02*
Y1040D01*
X5390Y53D02*
Y312D01*
X5430Y53D02*
Y249D01*
X5410Y53D02*
Y275D01*
X5170Y53D02*
Y1040D01*
X5190Y53D02*
Y1040D01*
X5210Y53D02*
Y1040D01*
X5230Y53D02*
Y1040D01*
X5250Y53D02*
Y1040D01*
X5270Y53D02*
Y1040D01*
X5290Y53D02*
Y1040D01*
X5310Y53D02*
Y1040D01*
X5330Y53D02*
Y1040D01*
X5350Y53D02*
Y1041D01*
X5370Y53D02*
Y1048D01*
X5510Y53D02*
Y191D01*
X5530Y53D02*
Y183D01*
X5550Y53D02*
Y178D01*
X5570Y53D02*
Y174D01*
X5590Y53D02*
Y173D01*
X5610Y53D02*
Y173D01*
X5630Y53D02*
Y174D01*
X5650Y53D02*
Y178D01*
X5670Y53D02*
Y183D01*
X5659Y180D02*
X5947D01*
X5690Y53D02*
Y191D01*
X5450Y53D02*
Y229D01*
X5490Y53D02*
Y201D01*
X5470Y53D02*
Y213D01*
X5710Y53D02*
Y201D01*
X5709Y200D02*
X5947D01*
X5730Y53D02*
Y213D01*
X5750Y53D02*
Y229D01*
X5770Y53D02*
Y248D01*
X5790Y53D02*
Y274D01*
X5739Y220D02*
X5947D01*
X5810Y53D02*
Y312D01*
X5762Y240D02*
X5947D01*
X5780Y260D02*
X5947D01*
X5027Y693D02*
X5047Y713D01*
X5794Y280D02*
X5947D01*
X5805Y300D02*
X5947D01*
X5813Y320D02*
X5947D01*
X5820Y340D02*
X5947D01*
X5824Y360D02*
X5947D01*
X5827Y380D02*
X5947D01*
X5828Y400D02*
X5947D01*
X5010Y882D02*
Y1040D01*
X5030Y890D02*
Y1040D01*
X5050Y892D02*
Y1040D01*
X5070Y891D02*
Y1040D01*
X5090Y884D02*
Y1040D01*
X5130Y848D02*
Y1040D01*
X5390Y488D02*
Y1065D01*
X5410Y525D02*
Y1085D01*
X5110Y872D02*
Y1040D01*
X5780Y540D02*
X5947D01*
X5762Y560D02*
X5947D01*
X5739Y580D02*
X5947D01*
X5709Y600D02*
X5947D01*
X5659Y620D02*
X5947D01*
X5827Y420D02*
X5947D01*
X5824Y440D02*
X5947D01*
X5820Y460D02*
X5947D01*
X5813Y480D02*
X5947D01*
X5805Y500D02*
X5947D01*
X5794Y520D02*
X5947D01*
X5009Y680D02*
X5947D01*
X5035Y700D02*
X5947D01*
X5088Y720D02*
X5947D01*
X5117Y740D02*
X5947D01*
X5122Y860D02*
X5947D01*
X5098Y880D02*
X5947D01*
X5132Y760D02*
X5947D01*
X5140Y780D02*
X5947D01*
X5142Y800D02*
X5947D01*
X5141Y820D02*
X5947D01*
X5134Y840D02*
X5947D01*
X5385Y1060D02*
X5947D01*
X4610Y1160D02*
Y1298D01*
X4630Y1160D02*
Y1298D01*
X4650Y1160D02*
Y1298D01*
X4670Y1160D02*
Y1298D01*
X4690Y1160D02*
Y1298D01*
X4710Y1160D02*
Y1298D01*
X4730Y1160D02*
Y1298D01*
X4750Y1160D02*
Y1298D01*
X4770Y1160D02*
Y1298D01*
X4790Y1160D02*
Y1298D01*
X4810Y1160D02*
Y1298D01*
X4830Y1160D02*
Y1298D01*
X4850Y1160D02*
Y1298D01*
X4870Y1160D02*
Y1298D01*
X4890Y1160D02*
Y1298D01*
X4910Y1160D02*
Y1298D01*
X4930Y1160D02*
Y1298D01*
X4950Y1160D02*
Y1298D01*
X4970Y1160D02*
Y1298D01*
X4990Y1160D02*
Y1298D01*
X5010Y1160D02*
Y1298D01*
X5030Y1160D02*
Y1298D01*
X4055Y1180D02*
X5335D01*
X4035Y1200D02*
X5355D01*
X4015Y1220D02*
X5375D01*
X3995Y1240D02*
X5395D01*
X3951Y1260D02*
X5415D01*
X5050Y1160D02*
Y1298D01*
X4075Y1160D02*
X5315D01*
X5070D02*
Y1298D01*
X5190Y1160D02*
Y1566D01*
X5315Y1160D02*
X5475Y1320D01*
X5210Y1160D02*
Y1566D01*
X5090Y1160D02*
Y2760D01*
X5130Y1160D02*
Y1598D01*
X5110Y1160D02*
Y2748D01*
X5150Y1160D02*
Y1580D01*
X5170Y1160D02*
Y1570D01*
X5230Y1160D02*
Y1570D01*
X5250Y1160D02*
Y1580D01*
X5270Y1160D02*
Y1598D01*
X5290Y1160D02*
Y1653D01*
X5310Y1160D02*
Y1680D01*
X5330Y1175D02*
Y1700D01*
X5350Y1195D02*
Y1723D01*
X3625Y1298D02*
X5078D01*
Y1580D02*
X5150D01*
X5078Y1640D02*
X5111D01*
X5078Y1600D02*
X5129D01*
X5078Y1620D02*
X5117D01*
X5078Y1660D02*
X5110D01*
X5290Y1657D02*
Y1660D01*
X5078Y1680D02*
X5114D01*
X5078Y1700D02*
X5122D01*
X5290Y1660D02*
X5340Y1710D01*
X5078Y1298D02*
Y2533D01*
X5130Y1712D02*
Y2728D01*
X5078Y1720D02*
X5138D01*
X5078Y1740D02*
X5170D01*
X5150Y1730D02*
Y2708D01*
X5170Y1740D02*
Y2688D01*
X5205Y1745D02*
X5238Y1777D01*
X5190Y1744D02*
Y2668D01*
X3622Y1280D02*
X5435D01*
X5078Y1300D02*
X5455D01*
X5078Y1360D02*
X5460D01*
X5078Y1320D02*
X5475D01*
X5078Y1340D02*
X5466D01*
X5078Y1400D02*
X5455D01*
X5078Y1380D02*
X5457D01*
X5078Y1420D02*
X5456D01*
X5078Y1440D02*
X5458D01*
X5078Y1460D02*
X5463D01*
X5078Y1480D02*
X5470D01*
X5078Y1500D02*
X5480D01*
X5078Y1520D02*
X5494D01*
X5078Y1540D02*
X5511D01*
X5078Y1560D02*
X5535D01*
X5250Y1580D02*
X5571D01*
X5271Y1600D02*
X5947D01*
X5290Y1660D02*
X5522D01*
X5283Y1620D02*
X5602D01*
X5289Y1640D02*
X5551D01*
X5348Y1720D02*
X5475D01*
X5310Y1680D02*
X5502D01*
X5330Y1700D02*
X5487D01*
X5430Y551D02*
Y1105D01*
X5450Y571D02*
Y1125D01*
X5470Y587D02*
Y1145D01*
X5490Y599D02*
Y1165D01*
X5510Y609D02*
Y1185D01*
X5530Y617D02*
Y1205D01*
X5650Y622D02*
Y1215D01*
X5550Y622D02*
Y1225D01*
X5610Y627D02*
Y1218D01*
X5630Y626D02*
Y1216D01*
X5670Y617D02*
Y1217D01*
X5370Y1215D02*
Y2795D01*
X5382Y1058D02*
X5560Y1235D01*
X5390Y1235D02*
Y2775D01*
X5430Y1275D02*
Y2735D01*
X5410Y1255D02*
Y2755D01*
X5690Y609D02*
Y1220D01*
X5710Y599D02*
Y1226D01*
X5730Y587D02*
Y1235D01*
X5570Y626D02*
Y1230D01*
X5590Y627D02*
Y1223D01*
X5545Y1220D02*
X5602D01*
X5405Y1080D02*
X5947D01*
X5425Y1100D02*
X5947D01*
X5445Y1120D02*
X5947D01*
X5465Y1140D02*
X5947D01*
X5485Y1160D02*
X5947D01*
X5750Y571D02*
Y1247D01*
X5505Y1180D02*
X5947D01*
X5525Y1200D02*
X5947D01*
X5688Y1220D02*
X5947D01*
X5739Y1240D02*
X5947D01*
X5768Y1260D02*
X5947D01*
X5790Y526D02*
Y1282D01*
X5810Y488D02*
Y1311D01*
X5830Y53D02*
Y1362D01*
X5770Y552D02*
Y1262D01*
X5788Y1280D02*
X5947D01*
X5850Y53D02*
Y3947D01*
X5870Y53D02*
Y3947D01*
X5890Y53D02*
Y3947D01*
X5910Y53D02*
Y3947D01*
X5930Y53D02*
Y3947D01*
X5947Y53D02*
Y3947D01*
X5470Y1315D02*
Y1331D01*
X5550Y1570D02*
Y1640D01*
X5570Y1580D02*
Y1630D01*
X5590Y1587D02*
Y1623D01*
X5610Y1592D02*
Y1618D01*
X5690Y1590D02*
Y1620D01*
X5710Y1584D02*
Y1626D01*
X5730Y1575D02*
Y1635D01*
X5630Y1594D02*
Y1616D01*
X5650Y1595D02*
Y1615D01*
X5670Y1593D02*
Y1617D01*
X5450Y1295D02*
Y2715D01*
X5470Y1479D02*
Y1731D01*
X5356Y1740D02*
X5466D01*
X5510Y1539D02*
Y1671D01*
X5490Y1515D02*
Y1695D01*
X5790Y1528D02*
Y1682D01*
X5810Y1499D02*
Y1711D01*
X5830Y1448D02*
Y1762D01*
X5530Y1556D02*
Y1654D01*
X5750Y1563D02*
Y1647D01*
X5770Y1548D02*
Y1662D01*
X5803Y1300D02*
X5947D01*
X5815Y1320D02*
X5947D01*
X5824Y1340D02*
X5947D01*
X5827Y1460D02*
X5947D01*
X5810Y1500D02*
X5947D01*
X5830Y1360D02*
X5947D01*
X5833Y1380D02*
X5947D01*
X5835Y1400D02*
X5947D01*
X5834Y1420D02*
X5947D01*
X5832Y1440D02*
X5947D01*
X5820Y1480D02*
X5947D01*
X5755Y1560D02*
X5947D01*
X5719Y1580D02*
X5947D01*
X5688Y1620D02*
X5947D01*
X5739Y1640D02*
X5947D01*
X5796Y1520D02*
X5947D01*
X5779Y1540D02*
X5947D01*
X5768Y1660D02*
X5947D01*
X5788Y1680D02*
X5947D01*
X5803Y1700D02*
X5947D01*
X5815Y1720D02*
X5947D01*
X2850Y2452D02*
Y2662D01*
X2870Y2452D02*
Y2651D01*
X2890Y2452D02*
Y2646D01*
X2910Y2452D02*
Y2645D01*
X2930Y2457D02*
Y2649D01*
X3090Y2407D02*
Y2495D01*
X3070Y2438D02*
Y2502D01*
X2950Y2472D02*
Y2659D01*
X3050Y2462D02*
Y2515D01*
X3030Y2474D02*
Y2541D01*
X2690Y2452D02*
Y2947D01*
X2710Y2452D02*
Y2947D01*
X2730Y2452D02*
Y2947D01*
X2750Y2452D02*
Y2947D01*
X2770Y2452D02*
Y2947D01*
X2790Y2452D02*
Y2947D01*
X2830Y2452D02*
Y2682D01*
X2810Y2452D02*
Y2947D01*
X2970Y2480D02*
Y2675D01*
X2990Y2482D02*
Y2714D01*
X3010Y2481D02*
Y2720D01*
X3086Y2240D02*
X3625D01*
X3112Y2260D02*
X3625D01*
X3132Y2280D02*
X3625D01*
X3152Y2300D02*
X3625D01*
X3172Y2320D02*
X3625D01*
X3192Y2340D02*
X3625D01*
X3212Y2360D02*
X3625D01*
X3232Y2380D02*
X3625D01*
X3252Y2400D02*
X3625D01*
X3078Y2420D02*
X3103D01*
X3082Y2400D02*
X3315Y2633D01*
X3069Y2440D02*
X3123D01*
X3052Y2460D02*
X3143D01*
X3014Y2480D02*
X3163D01*
X3110Y2427D02*
Y2492D01*
X3272Y2420D02*
X3625D01*
X3105Y2253D02*
X3410Y2558D01*
X3130Y2447D02*
Y2495D01*
X3150Y2467D02*
Y2502D01*
X3170Y2487D02*
Y2515D01*
X2830Y2788D02*
Y2947D01*
X2850Y2808D02*
Y2947D01*
X3030Y2624D02*
Y2720D01*
X2952Y2660D02*
X3064D01*
X3050Y2650D02*
Y2720D01*
X3070Y2663D02*
Y2720D01*
X3090Y2670D02*
Y2720D01*
X3110Y2673D02*
Y2720D01*
X2870Y2819D02*
Y2947D01*
X2890Y2824D02*
Y2947D01*
X2910Y2827D02*
Y2947D01*
X2930Y2837D02*
Y2947D01*
X2950Y2840D02*
Y2947D01*
X2970Y2840D02*
Y2947D01*
X2990Y2840D02*
Y2947D01*
X3010Y2840D02*
Y2947D01*
X3030Y2840D02*
Y2947D01*
X3050Y2840D02*
Y2947D01*
X3070Y2840D02*
Y2947D01*
X3146Y2500D02*
X3183D01*
X3190Y2507D02*
Y2541D01*
X3175Y2520D02*
X3203D01*
X3189Y2540D02*
X3223D01*
X3197Y2560D02*
X3243D01*
X3210Y2527D02*
Y2598D01*
X3200Y2580D02*
X3263D01*
X3230Y2547D02*
Y2618D01*
X3212Y2600D02*
X3283D01*
X3232Y2620D02*
X3303D01*
X2974Y2680D02*
X3123D01*
X2985Y2700D02*
X3143D01*
X2991Y2720D02*
X3163D01*
X2991Y2720D02*
X3163D01*
X2948Y2840D02*
X3683D01*
X3250Y2567D02*
Y2633D01*
X3200Y2588D02*
X3245Y2633D01*
X3315D01*
X3130Y2687D02*
Y2720D01*
X3150Y2707D02*
Y2720D01*
X3115Y2672D02*
X3163Y2720D01*
X3292Y2440D02*
X3625D01*
X3312Y2460D02*
X3625D01*
X3332Y2480D02*
X3625D01*
X3352Y2500D02*
X3625D01*
X3372Y2520D02*
X3625D01*
X3630Y2533D02*
Y2558D01*
X3650Y2533D02*
Y2558D01*
X3670Y2533D02*
Y2558D01*
X3690Y2533D02*
Y2558D01*
X3710Y2533D02*
Y2558D01*
X3730Y2533D02*
Y2558D01*
X3750Y2533D02*
Y2558D01*
X3770Y2533D02*
Y2558D01*
X3790Y2533D02*
Y2559D01*
X3810Y2533D02*
Y2569D01*
X3830Y2533D02*
Y2588D01*
X3850Y2533D02*
Y2608D01*
X3870Y2533D02*
Y2628D01*
X3890Y2533D02*
Y2648D01*
X3910Y2533D02*
Y2668D01*
X3930Y2533D02*
Y2688D01*
X3950Y2533D02*
Y2708D01*
X3970Y2533D02*
Y2728D01*
X3625Y2533D02*
X5078D01*
X3990D02*
Y2748D01*
X4010Y2533D02*
Y2760D01*
X4030Y2533D02*
Y2760D01*
X4050Y2533D02*
Y2760D01*
X4070Y2533D02*
Y2760D01*
X4090Y2533D02*
Y2760D01*
X4110Y2533D02*
Y2760D01*
X4130Y2533D02*
Y2760D01*
X4150Y2533D02*
Y2760D01*
X4170Y2533D02*
Y2760D01*
X4190Y2533D02*
Y2760D01*
X4210Y2533D02*
Y2760D01*
X4230Y2533D02*
Y2760D01*
X4250Y2533D02*
Y2760D01*
X4270Y2533D02*
Y2760D01*
X4290Y2533D02*
Y2760D01*
X4310Y2533D02*
Y2760D01*
X4330Y2533D02*
Y2760D01*
X4350Y2533D02*
Y2760D01*
X4370Y2533D02*
Y2760D01*
X4390Y2533D02*
Y2760D01*
X3410Y2558D02*
X3775D01*
X3270Y2587D02*
Y2633D01*
X3290Y2607D02*
Y2633D01*
X3310Y2627D02*
Y2633D01*
X4410Y2533D02*
Y2760D01*
X4430Y2533D02*
Y2760D01*
X4450Y2533D02*
Y2760D01*
X3817Y2575D02*
X4002Y2760D01*
X4470Y2533D02*
Y2760D01*
X4490Y2533D02*
Y2760D01*
X4510Y2533D02*
Y2760D01*
X4530Y2533D02*
Y2760D01*
X4550Y2533D02*
Y2760D01*
X4570Y2533D02*
Y2760D01*
X4590Y2533D02*
Y2760D01*
X4610Y2533D02*
Y2760D01*
X4630Y2533D02*
Y2760D01*
X4650Y2533D02*
Y2760D01*
X4670Y2533D02*
Y2760D01*
X4690Y2533D02*
Y2760D01*
X4710Y2533D02*
Y2760D01*
X4730Y2533D02*
Y2760D01*
X4750Y2533D02*
Y2760D01*
X3962Y2720D02*
X5138D01*
X3982Y2740D02*
X5118D01*
X4770Y2533D02*
Y2760D01*
X4790Y2533D02*
Y2760D01*
X4810Y2533D02*
Y2760D01*
X4830Y2533D02*
Y2760D01*
X4850Y2533D02*
Y2760D01*
X4870Y2533D02*
Y2760D01*
X4890Y2533D02*
Y2760D01*
X4910Y2533D02*
Y2760D01*
X4930Y2533D02*
Y2760D01*
X4950Y2533D02*
Y2760D01*
X4002D02*
X5098D01*
X4002Y2760D02*
X5098D01*
X4970Y2533D02*
Y2760D01*
X4990Y2533D02*
Y2760D01*
X5010Y2533D02*
Y2760D01*
X5030Y2533D02*
Y2760D01*
X5050Y2533D02*
Y2760D01*
X5070Y2533D02*
Y2760D01*
X3090Y2840D02*
Y2947D01*
X3110Y2840D02*
Y2947D01*
X3130Y2840D02*
Y2947D01*
X3150Y2840D02*
Y2947D01*
X3170Y2840D02*
Y2947D01*
X3190Y2840D02*
Y2947D01*
X3210Y2840D02*
Y2947D01*
X3230Y2840D02*
Y2947D01*
X3250Y2840D02*
Y2947D01*
X3270Y2840D02*
Y2947D01*
X3290Y2840D02*
Y2947D01*
X3310Y2840D02*
Y2947D01*
X3330Y2840D02*
Y2947D01*
X3350Y2840D02*
Y2947D01*
X3370Y2840D02*
Y2947D01*
X3390Y2840D02*
Y2947D01*
X3410Y2840D02*
Y2947D01*
X3430Y2840D02*
Y2947D01*
X3450Y2840D02*
Y2947D01*
X3470Y2840D02*
Y2947D01*
X3490Y2840D02*
Y2947D01*
X3510Y2840D02*
Y2947D01*
X3530Y2840D02*
Y2947D01*
X3550Y2840D02*
Y2947D01*
X3570Y2840D02*
Y2947D01*
X3590Y2840D02*
Y2947D01*
X3610Y2840D02*
Y2947D01*
X3630Y2840D02*
Y2947D01*
X3650Y2840D02*
Y2947D01*
X3670Y2840D02*
Y2951D01*
X3690Y2847D02*
Y2966D01*
X3684Y2960D02*
X3803D01*
X3990Y2962D02*
Y2978D01*
X3710Y2867D02*
Y3947D01*
X3683Y2840D02*
X4033Y3190D01*
X3730Y2887D02*
Y3947D01*
X3750Y2907D02*
Y3947D01*
X3770Y2927D02*
Y3947D01*
X3975Y2962D02*
X4100Y3088D01*
X3790Y2947D02*
Y3947D01*
X4010Y2962D02*
Y2998D01*
X4030Y2962D02*
Y3018D01*
X4050Y2962D02*
Y3038D01*
X3699Y2980D02*
X3823D01*
X3703Y3000D02*
X3843D01*
X3703Y3020D02*
X3863D01*
X3703Y3040D02*
X3883D01*
X3703Y3060D02*
X3903D01*
X3703Y3000D02*
Y3947D01*
Y3080D02*
X3923D01*
X3703Y3100D02*
X3943D01*
X3703Y3120D02*
X3963D01*
X3703Y3140D02*
X3983D01*
X3703Y3160D02*
X4003D01*
X3810Y2967D02*
Y3947D01*
X3830Y2987D02*
Y3947D01*
X3850Y3007D02*
Y3947D01*
X3870Y3027D02*
Y3947D01*
X3890Y3047D02*
Y3947D01*
X3910Y3067D02*
Y3947D01*
X3930Y3087D02*
Y3947D01*
X3950Y3107D02*
Y3947D01*
X3970Y3127D02*
Y3947D01*
X3990Y3147D02*
Y3947D01*
X4010Y3167D02*
Y3947D01*
X4070Y2962D02*
Y3058D01*
X4090Y2962D02*
Y3078D01*
X3703Y3180D02*
X4023D01*
X4072Y3060D02*
X4847D01*
X3703Y3200D02*
X4046D01*
X4110Y2962D02*
Y3088D01*
X4130Y2962D02*
Y3088D01*
X4150Y2962D02*
Y3088D01*
X4170Y2962D02*
Y3088D01*
X4092Y3080D02*
X4808D01*
X4100Y3088D02*
X4800D01*
X4030Y3187D02*
Y3947D01*
X4050Y3202D02*
Y3947D01*
X3703Y3220D02*
X4814D01*
X4070Y3207D02*
Y3947D01*
X4090Y3208D02*
Y3947D01*
X4075Y3208D02*
X4800D01*
X4110D02*
Y3947D01*
X4130Y3208D02*
Y3947D01*
X4150Y3208D02*
Y3947D01*
X4170Y3208D02*
Y3947D01*
X4190Y2962D02*
Y3088D01*
X4210Y2962D02*
Y3088D01*
X4230Y2962D02*
Y3088D01*
X4250Y2962D02*
Y3088D01*
X4270Y2962D02*
Y3088D01*
X4290Y2962D02*
Y3088D01*
X4310Y2962D02*
Y3088D01*
X4330Y2962D02*
Y3088D01*
X4350Y2962D02*
Y3088D01*
X4370Y2962D02*
Y3088D01*
X4390Y2962D02*
Y3088D01*
X4410Y2962D02*
Y3088D01*
X4430Y2962D02*
Y3088D01*
X4450Y2962D02*
Y3088D01*
X4470Y2962D02*
Y3088D01*
X4490Y2962D02*
Y3088D01*
X4510Y2962D02*
Y3088D01*
X4530Y2962D02*
Y3088D01*
X4550Y2962D02*
Y3088D01*
X4570Y2962D02*
Y3088D01*
X4590Y2962D02*
Y3088D01*
X4610Y2962D02*
Y3088D01*
X4630Y2962D02*
Y3088D01*
X4650Y2962D02*
Y3088D01*
X4670Y2962D02*
Y3088D01*
X4810Y2962D02*
Y3078D01*
X4690Y2962D02*
Y3088D01*
X4830Y2962D02*
Y3066D01*
X4870Y2962D02*
Y3058D01*
X4850Y2962D02*
Y3059D01*
X4890Y2962D02*
Y3060D01*
X4910Y2962D02*
Y3068D01*
X4930Y2962D02*
Y3083D01*
X4710Y2962D02*
Y3088D01*
X4730Y2962D02*
Y3088D01*
X4750Y2962D02*
Y3088D01*
X4770Y2962D02*
Y3088D01*
X4790Y2962D02*
Y3088D01*
X4950Y2962D02*
Y3111D01*
X4970Y2962D02*
Y3947D01*
X4990Y2962D02*
Y3947D01*
X5010Y2962D02*
Y3947D01*
X5030Y2962D02*
Y3947D01*
X5050Y2962D02*
Y3947D01*
X5070Y2962D02*
Y3947D01*
X4190Y3208D02*
Y3947D01*
X4210Y3208D02*
Y3947D01*
X4230Y3208D02*
Y3947D01*
X4250Y3208D02*
Y3947D01*
X4270Y3208D02*
Y3947D01*
X4290Y3208D02*
Y3947D01*
X4310Y3208D02*
Y3947D01*
X4330Y3208D02*
Y3947D01*
X4350Y3208D02*
Y3947D01*
X4370Y3208D02*
Y3947D01*
X4390Y3208D02*
Y3947D01*
X4410Y3208D02*
Y3947D01*
X4430Y3208D02*
Y3947D01*
X4450Y3208D02*
Y3947D01*
X4470Y3208D02*
Y3947D01*
X4490Y3208D02*
Y3947D01*
X4510Y3208D02*
Y3947D01*
X4530Y3208D02*
Y3947D01*
X4550Y3208D02*
Y3947D01*
X4570Y3208D02*
Y3947D01*
X4590Y3208D02*
Y3947D01*
X4610Y3208D02*
Y3947D01*
X4630Y3208D02*
Y3947D01*
X4650Y3208D02*
Y3947D01*
X4670Y3208D02*
Y3947D01*
X4690Y3208D02*
Y3947D01*
X4710Y3208D02*
Y3947D01*
X4730Y3208D02*
Y3947D01*
X4750Y3208D02*
Y3947D01*
X4770Y3208D02*
Y3947D01*
X4790Y3208D02*
Y3947D01*
X4810Y3217D02*
Y3947D01*
X4830Y3229D02*
Y3947D01*
X4910Y3227D02*
Y3947D01*
X4850Y3236D02*
Y3947D01*
X4870Y3237D02*
Y3947D01*
X4890Y3235D02*
Y3947D01*
X5090Y2962D02*
Y3947D01*
X5110Y2962D02*
Y3947D01*
X5130Y2962D02*
Y3947D01*
X4930Y3212D02*
Y3947D01*
X4950Y3184D02*
Y3947D01*
X5150Y2962D02*
Y3947D01*
X5078Y1760D02*
X5220D01*
X5078Y1780D02*
X5238D01*
X5078Y1800D02*
X5238D01*
X5078Y1820D02*
X5238D01*
X5078Y1840D02*
X5238D01*
X5078Y1860D02*
X5238D01*
X5078Y1880D02*
X5238D01*
X5078Y1900D02*
X5238D01*
X5078Y1920D02*
X5238D01*
X5078Y1940D02*
X5238D01*
X5078Y1960D02*
X5238D01*
X5078Y1980D02*
X5238D01*
X5078Y2000D02*
X5238D01*
X5078Y2020D02*
X5238D01*
X5078Y2040D02*
X5238D01*
X5078Y2060D02*
X5238D01*
X5210Y1750D02*
Y2648D01*
X5238Y1777D02*
Y2620D01*
X5230Y1770D02*
Y2628D01*
X5078Y2080D02*
X5238D01*
X5078Y2100D02*
X5238D01*
X5078Y2120D02*
X5238D01*
X5358Y1760D02*
X5460D01*
X5358Y1780D02*
X5457D01*
X5358Y1800D02*
X5455D01*
X5358Y1820D02*
X5456D01*
X5358Y1840D02*
X5458D01*
X5358Y1860D02*
X5463D01*
X5358Y1880D02*
X5470D01*
X5358Y1900D02*
X5480D01*
X5358Y1920D02*
X5494D01*
X5358Y1940D02*
X5511D01*
X5358Y1960D02*
X5535D01*
X5358Y1980D02*
X5571D01*
X5358Y2000D02*
X5947D01*
X5078Y2140D02*
X5238D01*
X5358Y2020D02*
X5602D01*
X5078Y2160D02*
X5238D01*
X5358Y2080D02*
X5502D01*
X5358Y2040D02*
X5551D01*
X5358Y2060D02*
X5522D01*
X5358Y2140D02*
X5466D01*
X5358Y2100D02*
X5487D01*
X5358Y2120D02*
X5475D01*
X5078Y2180D02*
X5238D01*
X5078Y2200D02*
X5238D01*
X5078Y2220D02*
X5238D01*
X5078Y2240D02*
X5238D01*
X5078Y2260D02*
X5238D01*
X5078Y2280D02*
X5238D01*
X5078Y2300D02*
X5238D01*
X5078Y2320D02*
X5238D01*
X5078Y2340D02*
X5238D01*
X5078Y2360D02*
X5238D01*
X5078Y2380D02*
X5238D01*
X5078Y2400D02*
X5238D01*
X3392Y2540D02*
X5238D01*
X3902Y2660D02*
X5198D01*
X3792Y2560D02*
X5238D01*
X3882Y2640D02*
X5218D01*
X5078Y2420D02*
X5238D01*
X5078Y2440D02*
X5238D01*
X5078Y2460D02*
X5238D01*
X5078Y2480D02*
X5238D01*
X5078Y2500D02*
X5238D01*
X5078Y2520D02*
X5238D01*
X5358Y2160D02*
X5460D01*
X5358Y2180D02*
X5457D01*
X5358Y2200D02*
X5455D01*
X5358Y2220D02*
X5456D01*
X5358Y2240D02*
X5458D01*
X5358Y2260D02*
X5463D01*
X5358Y2280D02*
X5470D01*
X5358Y2300D02*
X5480D01*
X5358Y2320D02*
X5494D01*
X5358Y2340D02*
X5511D01*
X5358Y2360D02*
X5535D01*
X5358Y2380D02*
X5571D01*
X5358Y2400D02*
X5947D01*
X5358Y2420D02*
X5602D01*
X3822Y2580D02*
X5238D01*
X3842Y2600D02*
X5238D01*
X3862Y2620D02*
X5238D01*
X5358Y2480D02*
X5502D01*
X5358Y2440D02*
X5551D01*
X5358Y2460D02*
X5522D01*
X5358Y2540D02*
X5466D01*
X5358Y2500D02*
X5487D01*
X5358Y2520D02*
X5475D01*
X5550Y1970D02*
Y2040D01*
X5570Y1980D02*
Y2030D01*
X5590Y1987D02*
Y2023D01*
X5630Y1994D02*
Y2016D01*
X5610Y1992D02*
Y2018D01*
X5710Y1984D02*
Y2026D01*
X5824Y1740D02*
X5947D01*
X5730Y1975D02*
Y2035D01*
X5650Y1995D02*
Y2015D01*
X5670Y1993D02*
Y2017D01*
X5690Y1990D02*
Y2020D01*
X5358Y1752D02*
Y2645D01*
X5470Y1879D02*
Y2131D01*
X5490Y1915D02*
Y2095D01*
X5510Y1939D02*
Y2071D01*
X5790Y1928D02*
Y2082D01*
X5810Y1899D02*
Y2111D01*
X5830Y1848D02*
Y2162D01*
X5530Y1956D02*
Y2054D01*
X5750Y1963D02*
Y2047D01*
X5770Y1948D02*
Y2062D01*
X5827Y1860D02*
X5947D01*
X5810Y1900D02*
X5947D01*
X5796Y1920D02*
X5947D01*
X5779Y1940D02*
X5947D01*
X5755Y1960D02*
X5947D01*
X5830Y1760D02*
X5947D01*
X5833Y1780D02*
X5947D01*
X5835Y1800D02*
X5947D01*
X5834Y1820D02*
X5947D01*
X5832Y1840D02*
X5947D01*
X5820Y1880D02*
X5947D01*
X5719Y1980D02*
X5947D01*
X5688Y2020D02*
X5947D01*
X5739Y2040D02*
X5947D01*
X5768Y2060D02*
X5947D01*
X5788Y2080D02*
X5947D01*
X5803Y2100D02*
X5947D01*
X5815Y2120D02*
X5947D01*
X5824Y2140D02*
X5947D01*
X5830Y2160D02*
X5947D01*
X5833Y2180D02*
X5947D01*
X5835Y2200D02*
X5947D01*
X5834Y2220D02*
X5947D01*
X5550Y2370D02*
Y2440D01*
X5570Y2380D02*
Y2430D01*
X5590Y2387D02*
Y2423D01*
X5630Y2394D02*
Y2416D01*
X5610Y2392D02*
Y2418D01*
X5710Y2384D02*
Y2426D01*
X5730Y2375D02*
Y2435D01*
X5750Y2363D02*
Y2447D01*
X5650Y2395D02*
Y2415D01*
X5670Y2393D02*
Y2417D01*
X5690Y2390D02*
Y2420D01*
X5358Y2560D02*
X5460D01*
X5358Y2580D02*
X5457D01*
X5358Y2600D02*
X5455D01*
X5358Y2620D02*
X5456D01*
X5358Y2640D02*
X5458D01*
X5470Y2279D02*
Y2531D01*
X5510Y2339D02*
Y2471D01*
X5490Y2315D02*
Y2495D01*
X5356Y2660D02*
X5463D01*
X5530Y2356D02*
Y2454D01*
X5770Y2348D02*
Y2462D01*
X5755Y2360D02*
X5947D01*
X5719Y2380D02*
X5947D01*
X5688Y2420D02*
X5947D01*
X5739Y2440D02*
X5947D01*
X5768Y2460D02*
X5947D01*
X5832Y2240D02*
X5947D01*
X5827Y2260D02*
X5947D01*
X5820Y2280D02*
X5947D01*
X5810Y2300D02*
X5947D01*
X5796Y2320D02*
X5947D01*
X5779Y2340D02*
X5947D01*
X5790Y2328D02*
Y2482D01*
X5788Y2480D02*
X5947D01*
X5810Y2299D02*
Y2511D01*
X5803Y2500D02*
X5947D01*
X5815Y2520D02*
X5947D01*
X5824Y2540D02*
X5947D01*
X5830Y2248D02*
Y2562D01*
X5830Y2560D02*
X5947D01*
X5833Y2580D02*
X5947D01*
X5835Y2600D02*
X5947D01*
X5834Y2620D02*
X5947D01*
X5832Y2640D02*
X5947D01*
X3922Y2680D02*
X5178D01*
X5098Y2760D02*
X5238Y2620D01*
X3942Y2700D02*
X5158D01*
X5187Y2840D02*
X5325D01*
X5190Y2837D02*
Y2842D01*
X5270Y2757D02*
Y2842D01*
X5330Y2697D02*
Y2835D01*
X5290Y2737D02*
Y2842D01*
X5210Y2817D02*
Y2842D01*
X5230Y2797D02*
Y2842D01*
X5250Y2777D02*
Y2842D01*
X5170Y2962D02*
Y3947D01*
X5185Y2842D02*
X5323D01*
X5190Y2962D02*
Y3947D01*
X5210Y2962D02*
Y3947D01*
X5230Y2962D02*
Y3947D01*
X5250Y2962D02*
Y3947D01*
X5310Y2717D02*
Y2842D01*
X5270Y2962D02*
Y3947D01*
X5290Y2962D02*
Y3947D01*
X5310Y2962D02*
Y3947D01*
X5330Y2962D02*
Y3947D01*
X5267Y2760D02*
X5405D01*
X5287Y2740D02*
X5425D01*
X5207Y2820D02*
X5345D01*
X5247Y2780D02*
X5385D01*
X5227Y2800D02*
X5365D01*
X5346Y2680D02*
X5470D01*
X5350Y2674D02*
Y2815D01*
X5327Y2700D02*
X5465D01*
X5307Y2720D02*
X5445D01*
X3975Y2962D02*
X5347D01*
X3992Y2980D02*
X5947D01*
X4012Y3000D02*
X5947D01*
X4032Y3020D02*
X5947D01*
X4052Y3040D02*
X5947D01*
X4888Y3060D02*
X5947D01*
X5185Y2842D02*
X5340Y2687D01*
X5323Y2842D02*
X5475Y2690D01*
X5350Y2962D02*
Y3947D01*
X5365Y2960D02*
X5947D01*
X3703Y3400D02*
X5491D01*
X3703Y3380D02*
X5541D01*
X3703Y3460D02*
X5420D01*
X3703Y3420D02*
X5461D01*
X3703Y3440D02*
X5438D01*
X3703Y3520D02*
X5387D01*
X3703Y3480D02*
X5406D01*
X3703Y3500D02*
X5395D01*
X3703Y3540D02*
X5380D01*
X3703Y3560D02*
X5376D01*
X3703Y3580D02*
X5373D01*
X3703Y3600D02*
X5372D01*
X3703Y3620D02*
X5373D01*
X3703Y3640D02*
X5376D01*
X3703Y3660D02*
X5380D01*
X3703Y3680D02*
X5387D01*
X3703Y3700D02*
X5395D01*
X3703Y3720D02*
X5406D01*
X3703Y3740D02*
X5420D01*
X3703Y3760D02*
X5438D01*
X3703Y3780D02*
X5461D01*
X3703Y3800D02*
X5491D01*
X4927Y3080D02*
X5947D01*
X4921Y3220D02*
X5947D01*
X3703Y3240D02*
X5947D01*
X3703Y3260D02*
X5947D01*
X3703Y3280D02*
X5947D01*
X4944Y3100D02*
X5947D01*
X4953Y3120D02*
X5947D01*
X4957Y3140D02*
X5947D01*
X4957Y3160D02*
X5947D01*
X4951Y3180D02*
X5947D01*
X4941Y3200D02*
X5947D01*
X3703Y3300D02*
X5947D01*
X3703Y3320D02*
X5947D01*
X3703Y3340D02*
X5947D01*
X3703Y3820D02*
X5541D01*
X3703Y3360D02*
X5947D01*
X3703Y3840D02*
X5947D01*
X3703Y3860D02*
X5947D01*
X3703Y3880D02*
X5947D01*
X3703Y3900D02*
X5947D01*
X3703Y3920D02*
X5947D01*
X3703Y3940D02*
X5947D01*
X3703Y3947D02*
X5947D01*
X5470Y2679D02*
Y2695D01*
X5390Y2945D02*
X5560Y2775D01*
X5530Y2805D02*
Y3383D01*
X5555Y2780D02*
X5571D01*
X5550Y2785D02*
Y3378D01*
X5570Y2780D02*
Y3374D01*
X5590Y2787D02*
Y3373D01*
X5610Y2792D02*
Y3373D01*
X5630Y2794D02*
Y3374D01*
X5650Y2795D02*
Y3378D01*
X5670Y2793D02*
Y3383D01*
X5430Y2905D02*
Y3449D01*
X5450Y2885D02*
Y3429D01*
X5370Y2958D02*
Y3947D01*
X5410Y2925D02*
Y3475D01*
X5390Y2945D02*
Y3512D01*
X5690Y2790D02*
Y3391D01*
X5710Y2784D02*
Y3401D01*
X5730Y2775D02*
Y3413D01*
X5470Y2865D02*
Y3413D01*
X5510Y2825D02*
Y3391D01*
X5490Y2845D02*
Y3401D01*
X5719Y2780D02*
X5947D01*
X5535Y2800D02*
X5947D01*
X5515Y2820D02*
X5947D01*
X5827Y2660D02*
X5947D01*
X5820Y2680D02*
X5947D01*
X5810Y2700D02*
X5947D01*
X5796Y2720D02*
X5947D01*
X5779Y2740D02*
X5947D01*
X5755Y2760D02*
X5947D01*
X5475Y2860D02*
X5947D01*
X5455Y2880D02*
X5947D01*
X5435Y2900D02*
X5947D01*
X5415Y2920D02*
X5947D01*
X5395Y2940D02*
X5947D01*
X5790Y2728D02*
Y3474D01*
X5810Y2699D02*
Y3512D01*
X5830Y2648D02*
Y3947D01*
X5750Y2763D02*
Y3429D01*
X5495Y2840D02*
X5947D01*
X5770Y2748D02*
Y3448D01*
X5390Y3688D02*
Y3947D01*
X5410Y3725D02*
Y3947D01*
X5430Y3751D02*
Y3947D01*
X5450Y3771D02*
Y3947D01*
X5470Y3787D02*
Y3947D01*
X5490Y3799D02*
Y3947D01*
X5510Y3809D02*
Y3947D01*
X5530Y3817D02*
Y3947D01*
X5550Y3822D02*
Y3947D01*
X5570Y3826D02*
Y3947D01*
X5590Y3827D02*
Y3947D01*
X5670Y3817D02*
Y3947D01*
X5690Y3809D02*
Y3947D01*
X5610Y3827D02*
Y3947D01*
X5630Y3826D02*
Y3947D01*
X5650Y3822D02*
Y3947D01*
X5770Y3752D02*
Y3947D01*
X5790Y3726D02*
Y3947D01*
X5810Y3688D02*
Y3947D01*
X5710Y3799D02*
Y3947D01*
X5730Y3787D02*
Y3947D01*
X5750Y3771D02*
Y3947D01*
X5659Y3380D02*
X5947D01*
X5709Y3400D02*
X5947D01*
X5739Y3420D02*
X5947D01*
X5762Y3440D02*
X5947D01*
X5780Y3460D02*
X5947D01*
X5794Y3480D02*
X5947D01*
X5805Y3500D02*
X5947D01*
X5813Y3520D02*
X5947D01*
X5820Y3540D02*
X5947D01*
X5824Y3560D02*
X5947D01*
X5827Y3580D02*
X5947D01*
X5794Y3720D02*
X5947D01*
X5780Y3740D02*
X5947D01*
X5762Y3760D02*
X5947D01*
X5739Y3780D02*
X5947D01*
X5709Y3800D02*
X5947D01*
X5659Y3820D02*
X5947D01*
X5828Y3600D02*
X5947D01*
X5827Y3620D02*
X5947D01*
X5824Y3640D02*
X5947D01*
X5820Y3660D02*
X5947D01*
X5813Y3680D02*
X5947D01*
X5805Y3700D02*
X5947D01*
D47*
X4351Y1915D02*
D03*
D48*
X3886Y659D02*
D03*
M02*
