METRIC,LZ
M48
T1F00S00C0.50
T2F00S00C0.60
T3F00S00C1.00
T4F00S00C1.50
%
T01
X003875Y000108
X003888Y000528
Y000657
Y000788
X003867Y00109
X004167Y0012
X0042Y0017
Y0018
Y0019
Y002
Y0021
Y0022
Y0023
X0043
X0044
X0045
X0041
Y0022
Y0021
Y002
Y0019
Y0018
Y0017
X004
Y0018
Y0019
Y002
Y0021
Y0022
Y0023
X0043Y0017
X0044
X0045
X0052Y001655
X00512Y001525
X005417Y001925
X005858Y001992
X005865Y001602
X00586Y002415
X005865Y000595
X00587Y000145
X00529
Y00053
X005053Y000802
X004885Y000865
X004692Y000668
X00474Y000177
X004462Y000093
X003425Y000262
X00308Y000162
X00224Y000125
X001708Y000108
X001675Y000575
X002098Y00075
X002285Y000875
X002212Y001293
X002215Y0016
X002502Y001602
X002962Y001652
X00309Y001835
X003258Y00203
X002995Y0022
X002992Y002392
X003565Y002292
X00316Y001523
X003117Y001245
X003317Y0012
X002967Y001002
X002538Y000612
X001945Y001157
X0017Y00143
X00151Y001445
X001343Y00138
X00124Y001738
X001245Y002083
X000938Y002205
X000975Y001485
X00088Y000993
X001295Y000932
X001155Y000495
X0008Y000478
X000562Y000115
X00015Y000148
X000155Y000607
X00016Y000952
X000167Y001293
Y001792
X000173Y002315
X001812Y00214
X00183Y001933
X001202Y000108
X001277Y002992
X001314Y003274
X00176Y003265
X001923Y003515
X00213Y003785
X001745Y003855
X002198Y0032
X002585Y002895
X002902Y002735
X002948Y00254
X00311Y002583
X003102Y002895
X003572
X00083Y002988
X000607Y003317
X000155Y003285
X000173Y002808
X00016Y003855
X00061
X004Y003725
X004317Y00373
X0046Y003725
X004353Y0034
X00438Y002998
X004688Y003005
X004867Y003148
X00499Y003235
X005835Y003415
Y003838
X003897Y003123
T02
X001985Y002395
Y002523
Y00265
Y002777
Y002905
T03
X00066Y00075
X00116
X001985Y0003
X002485
X001112Y003728
X000857
T04
X005645Y001405
Y001805
Y002205
X0004Y002052
Y001543
Y002558
Y003067
X005645Y002605
M30
