%FSLAX42Y42*%
%MOMM*%
G71*
G01*
G75*
%ADD10C,0.25*%
%ADD11R,2.00X2.00*%
%ADD12R,1.25X1.50*%
%ADD13R,4.00X1.80*%
%ADD14R,2.00X4.00*%
%ADD15R,0.75X0.75*%
%ADD16R,1.25X2.80*%
%ADD17R,1.50X1.25*%
%ADD18R,0.91X0.91*%
%ADD19O,2.00X0.60*%
%ADD20R,0.91X1.27*%
%ADD21R,1.25X0.90*%
%ADD22R,0.90X1.25*%
%ADD23R,1.27X0.91*%
%ADD24O,4.00X2.00*%
%ADD25R,2.55X0.90*%
%ADD26O,0.50X2.00*%
%ADD27R,0.50X2.00*%
%ADD28R,1.27X0.51*%
%ADD29R,2.90X5.40*%
%ADD30R,1.50X1.50*%
%ADD31C,0.40*%
%ADD32C,0.25*%
%ADD33C,1.00*%
%ADD34C,1.50*%
%ADD35C,1.25*%
%ADD36C,2.00*%
%ADD37C,1.20*%
%ADD38R,3.48X3.98*%
%ADD39R,7.20X7.85*%
%ADD40R,4.13X2.98*%
%ADD41C,2.00*%
%ADD42R,1.00X1.00*%
%ADD43C,1.00*%
%ADD44C,1.75*%
%ADD45C,3.00*%
%ADD46C,0.30*%
%ADD47R,13.72X11.55*%
%ADD48R,2.02X3.98*%
%ADD49R,2.20X2.20*%
%ADD50R,1.45X1.70*%
%ADD51R,4.20X2.00*%
%ADD52R,2.20X4.20*%
%ADD53R,0.95X0.95*%
%ADD54R,1.45X3.00*%
%ADD55R,1.70X1.45*%
%ADD56R,1.11X1.11*%
%ADD57O,2.20X0.80*%
%ADD58R,1.11X1.47*%
%ADD59R,1.45X1.10*%
%ADD60R,1.10X1.45*%
%ADD61R,1.47X1.11*%
%ADD62O,4.20X2.20*%
%ADD63R,2.75X1.10*%
%ADD64O,0.70X2.20*%
%ADD65R,0.70X2.20*%
%ADD66R,1.47X0.71*%
%ADD67R,3.10X5.60*%
%ADD68R,1.70X1.70*%
%ADD69C,2.20*%
%ADD70R,1.20X1.20*%
%ADD71C,1.20*%
%ADD72C,1.95*%
%ADD73C,3.20*%
D69*
X1985Y300D02*
D03*
X2485D02*
D03*
X1160Y750D02*
D03*
X660D02*
D03*
D70*
X1985Y2905D02*
D03*
D71*
Y2777D02*
D03*
Y2650D02*
D03*
Y2523D02*
D03*
Y2395D02*
D03*
X4200Y1800D02*
D03*
Y1900D02*
D03*
Y2000D02*
D03*
Y2100D02*
D03*
Y2200D02*
D03*
X4500Y1700D02*
D03*
X4400D02*
D03*
X4300D02*
D03*
X4200D02*
D03*
Y2300D02*
D03*
X4300D02*
D03*
X4400D02*
D03*
X4500D02*
D03*
X4100Y1700D02*
D03*
Y1800D02*
D03*
Y1900D02*
D03*
Y2000D02*
D03*
Y2100D02*
D03*
Y2200D02*
D03*
Y2300D02*
D03*
X4000Y1700D02*
D03*
Y1800D02*
D03*
Y1900D02*
D03*
Y2000D02*
D03*
Y2100D02*
D03*
Y2200D02*
D03*
Y2300D02*
D03*
X3317Y1200D02*
D03*
X3117Y1245D02*
D03*
X2098Y750D02*
D03*
X2902Y2735D02*
D03*
X2962Y1652D02*
D03*
X3110Y2583D02*
D03*
X2992Y2392D02*
D03*
X4692Y668D02*
D03*
X3867Y1090D02*
D03*
X1277Y2992D02*
D03*
X1700Y1430D02*
D03*
X1343Y1380D02*
D03*
X938Y2205D02*
D03*
X1812Y2140D02*
D03*
X1314Y3274D02*
D03*
X1245Y2083D02*
D03*
X975Y1485D02*
D03*
X1510Y1445D02*
D03*
X5200Y1655D02*
D03*
X4867Y3148D02*
D03*
X5053Y802D02*
D03*
X3888Y657D02*
D03*
Y788D02*
D03*
Y528D02*
D03*
X2130Y3785D02*
D03*
X1923Y3515D02*
D03*
X2198Y3200D02*
D03*
X2215Y1600D02*
D03*
X2285Y875D02*
D03*
X1945Y1157D02*
D03*
X1675Y575D02*
D03*
X607Y3317D02*
D03*
X2967Y1002D02*
D03*
X1295Y932D02*
D03*
X880Y993D02*
D03*
X2212Y1293D02*
D03*
X1155Y495D02*
D03*
X1240Y1738D02*
D03*
X2995Y2200D02*
D03*
X3258Y2030D02*
D03*
X3565Y2292D02*
D03*
X4380Y2998D02*
D03*
X4000Y3725D02*
D03*
X4600D02*
D03*
X3897Y3123D02*
D03*
X5860Y2415D02*
D03*
X4317Y3730D02*
D03*
X4688Y3005D02*
D03*
X4353Y3400D02*
D03*
X4990Y3235D02*
D03*
X5835Y3838D02*
D03*
X5417Y1925D02*
D03*
X5870Y145D02*
D03*
X5858Y1992D02*
D03*
X4885Y865D02*
D03*
X5865Y595D02*
D03*
X5120Y1525D02*
D03*
X3875Y108D02*
D03*
X3090Y1835D02*
D03*
X4462Y93D02*
D03*
X2948Y2540D02*
D03*
X4167Y1200D02*
D03*
X4740Y177D02*
D03*
X5290Y530D02*
D03*
Y145D02*
D03*
X3425Y262D02*
D03*
X2538Y612D02*
D03*
X800Y478D02*
D03*
X5865Y1602D02*
D03*
X1760Y3265D02*
D03*
X1830Y1933D02*
D03*
X5835Y3415D02*
D03*
X173Y2808D02*
D03*
Y2315D02*
D03*
X167Y1792D02*
D03*
Y1293D02*
D03*
X160Y952D02*
D03*
X155Y607D02*
D03*
X150Y148D02*
D03*
X562Y115D02*
D03*
X155Y3285D02*
D03*
X160Y3855D02*
D03*
X610D02*
D03*
X1745D02*
D03*
X3572Y2895D02*
D03*
X3102D02*
D03*
X2585D02*
D03*
X2240Y125D02*
D03*
X1708Y108D02*
D03*
X1202D02*
D03*
X3080Y162D02*
D03*
X3160Y1523D02*
D03*
X2502Y1602D02*
D03*
X830Y2988D02*
D03*
D72*
X1112Y3728D02*
D03*
X857D02*
D03*
D73*
X5645Y2605D02*
D03*
Y2205D02*
D03*
Y1805D02*
D03*
Y1405D02*
D03*
X400Y1543D02*
D03*
Y2052D02*
D03*
Y2558D02*
D03*
Y3067D02*
D03*
M02*
