%FSLAX42Y42*%
%MOMM*%
G71*
G01*
G75*
G04 Layer_Physical_Order=1*
G04 Layer_Color=255*
%ADD10R,1.25X0.90*%
%ADD11R,0.90X0.90*%
%ADD12R,0.90X1.25*%
%ADD13R,0.90X0.90*%
%ADD14O,2.00X0.60*%
%ADD15R,1.50X1.25*%
%ADD16R,1.25X1.50*%
%ADD17R,2.54X1.78*%
%ADD18R,7.62X5.59*%
%ADD19R,1.78X2.54*%
%ADD20R,5.59X7.62*%
%ADD21C,0.50*%
%ADD22C,0.35*%
%ADD23C,2.50*%
%ADD24C,0.30*%
%ADD25C,0.25*%
%ADD26R,11.20X16.40*%
%ADD27R,9.90X3.00*%
%ADD28R,11.10X9.60*%
%ADD29C,1.30*%
%ADD30R,1.30X1.30*%
%ADD31C,3.50*%
%ADD32R,1.80X1.80*%
%ADD33C,1.80*%
D10*
X10855Y8655D02*
D03*
X10265Y7815D02*
D03*
D11*
X10650Y8560D02*
D03*
Y8750D02*
D03*
X10470Y7910D02*
D03*
Y7720D02*
D03*
D12*
X12425Y6845D02*
D03*
X10805Y7815D02*
D03*
D13*
X12330Y7050D02*
D03*
X12520D02*
D03*
X10900Y7610D02*
D03*
X10710D02*
D03*
D14*
X12300Y8660D02*
D03*
Y8535D02*
D03*
Y8405D02*
D03*
Y8280D02*
D03*
Y8150D02*
D03*
Y8025D02*
D03*
Y7900D02*
D03*
X11740D02*
D03*
Y8025D02*
D03*
Y8150D02*
D03*
Y8280D02*
D03*
Y8405D02*
D03*
Y8535D02*
D03*
Y8660D02*
D03*
D15*
X11110D02*
D03*
X11340D02*
D03*
X12850Y6180D02*
D03*
X12620D02*
D03*
X12200Y6520D02*
D03*
X11970D02*
D03*
X12850D02*
D03*
X12620D02*
D03*
X10870Y7320D02*
D03*
X10640D02*
D03*
X12700Y8310D02*
D03*
X12930D02*
D03*
X11150Y8130D02*
D03*
X11380D02*
D03*
X12930Y8040D02*
D03*
X12700D02*
D03*
D16*
X11340Y8950D02*
D03*
Y9180D02*
D03*
X11780Y7410D02*
D03*
Y7640D02*
D03*
X11150Y7840D02*
D03*
Y7610D02*
D03*
X12050Y7410D02*
D03*
Y7640D02*
D03*
X11430Y7610D02*
D03*
Y7840D02*
D03*
D17*
X11410Y5861D02*
D03*
Y5480D02*
D03*
D18*
X10775Y5671D02*
D03*
D19*
X11739Y6190D02*
D03*
X12120D02*
D03*
D20*
X11929Y5555D02*
D03*
D21*
X11465Y9305D02*
X12970D01*
X13135Y8920D02*
Y9140D01*
X12970Y9305D02*
X13135Y9140D01*
X12380Y6720D02*
X12650D01*
X12200Y6520D02*
Y6540D01*
X12380Y6720D01*
X12650D02*
X12850Y6520D01*
X12870Y7240D02*
X13040D01*
X12670D02*
X12870D01*
Y6940D02*
Y7240D01*
X13040D02*
X13135Y7335D01*
X12590Y7160D02*
X12670Y7240D01*
X11780Y7160D02*
X12590D01*
X10265Y7365D02*
Y7815D01*
X11410Y6190D02*
Y6600D01*
X11230Y6780D02*
X11410Y6600D01*
X10850Y6780D02*
X11230D01*
X10265Y7365D02*
X10850Y6780D01*
X12330Y7050D02*
Y7160D01*
X12425Y6725D02*
Y6845D01*
X11980Y6380D02*
X12480D01*
X12620Y6520D01*
X12850Y6180D02*
Y6520D01*
X11940Y6340D02*
X11980Y6380D01*
X11940Y6060D02*
Y6340D01*
X11880Y6000D02*
X11940Y6060D01*
X11640Y6000D02*
X11880D01*
X11631Y5991D02*
X11640Y6000D01*
X11627Y5991D02*
X11631D01*
X11595Y5959D02*
X11627Y5991D01*
X11595Y5665D02*
Y5959D01*
X11410Y5480D02*
X11595Y5665D01*
X11430Y7610D02*
X11440Y7600D01*
Y7220D02*
Y7600D01*
X10900Y7610D02*
X11150D01*
X11739Y6190D02*
Y6469D01*
X11790Y6520D01*
X11970D01*
X12120Y6190D02*
X12130Y6180D01*
X12620D01*
X10265Y7815D02*
Y8520D01*
X12870Y7540D02*
Y7800D01*
X12930Y7860D01*
Y8040D01*
X10400Y8655D02*
X10650D01*
X10265Y8520D02*
X10400Y8655D01*
X10650D02*
Y8750D01*
Y8560D02*
Y8655D01*
X10470Y7820D02*
Y7910D01*
Y7720D02*
Y7820D01*
X10800Y8120D02*
X10805Y8115D01*
Y7815D02*
Y8115D01*
X10470Y7820D02*
X10800D01*
X10805Y7815D01*
X11150Y7080D02*
Y7610D01*
Y7080D02*
X11280Y6950D01*
X11570D01*
X11780Y7160D01*
Y7410D01*
X13135Y8310D02*
Y8920D01*
Y7335D02*
Y8310D01*
X12930D02*
X13135D01*
X11340Y9180D02*
X11465Y9305D01*
X12760Y8920D02*
X13135D01*
X12500Y8660D02*
X12760Y8920D01*
X12300Y8660D02*
X12500D01*
D22*
X12425Y6955D02*
X12520Y7050D01*
X11795Y6955D02*
X12425D01*
X11718Y6878D02*
X11795Y6955D01*
X10982Y6878D02*
X11718D01*
X10875Y6985D02*
X10982Y6878D01*
X10875Y6985D02*
Y7315D01*
X10870Y7320D02*
X10875Y7315D01*
X12050Y7410D02*
X12170Y7530D01*
X12430D01*
X12700Y8040D02*
Y8310D01*
X12685Y8025D02*
X12700Y8040D01*
X12300Y8025D02*
X12685D01*
X12300Y7760D02*
Y7900D01*
X12180Y7640D02*
X12300Y7760D01*
X12050Y7640D02*
X12180D01*
X11780D02*
X12050D01*
X11430Y7840D02*
X11540D01*
X11150D02*
X11430D01*
X11600Y7900D02*
X11740D01*
X11540Y7840D02*
X11600Y7900D01*
X10603Y8343D02*
X11397D01*
X10378Y7393D02*
X10450Y7320D01*
X10378Y7393D02*
Y8118D01*
X10603Y8343D01*
X11397D02*
X11590Y8150D01*
X11740D01*
X10820Y8480D02*
X11390D01*
X11590Y8280D01*
X11740D01*
X11585Y8025D02*
X11740D01*
X11480Y8130D02*
X11585Y8025D01*
X11380Y8130D02*
X11480D01*
X11020Y8000D02*
X11150Y8130D01*
X11020Y7800D02*
Y8000D01*
X10922Y7703D02*
X11020Y7800D01*
X10835Y7703D02*
X10922D01*
X10743Y7610D02*
X10835Y7703D01*
X10710Y7610D02*
X10743D01*
X10450Y7320D02*
X10640D01*
X10860Y8660D02*
X11110D01*
X10820Y8820D02*
X11000D01*
X11070Y8890D02*
Y9490D01*
X10745Y8555D02*
X10820Y8480D01*
X10745Y8555D02*
Y8745D01*
X10820Y8820D01*
X11000D02*
X11070Y8890D01*
Y9490D02*
X11230Y9650D01*
X12810D01*
X12970Y9810D01*
X12785Y8795D02*
X12970D01*
X12500Y8440D02*
Y8510D01*
X12785Y8795D01*
X11315Y9555D02*
X12970D01*
X11230Y8950D02*
X11340D01*
X11170Y9010D02*
X11230Y8950D01*
X11170Y9010D02*
Y9410D01*
X11315Y9555D01*
X11340Y8680D02*
Y8950D01*
X11360Y8660D02*
X11740D01*
X11340Y8680D02*
X11360Y8660D01*
X12300Y8405D02*
X12465D01*
X12500Y8440D01*
X12646Y9050D02*
X12970D01*
X12426Y8830D02*
X12646Y9050D01*
X12260Y8830D02*
X12426D01*
X12155Y8535D02*
X12300D01*
X12132Y8702D02*
X12260Y8830D01*
X12132Y8557D02*
Y8702D01*
Y8557D02*
X12155Y8535D01*
D23*
X12170Y5560D02*
X12440D01*
X10780Y5920D02*
Y6190D01*
X11410D02*
X11680D01*
X11410Y5920D02*
Y6190D01*
D24*
X11950Y8470D02*
Y8840D01*
X11884Y8906D02*
X11950Y8840D01*
X11884Y8906D02*
Y9050D01*
X12010Y8922D02*
X12138Y9050D01*
X12010Y8380D02*
X12110Y8280D01*
X12010Y8380D02*
Y8922D01*
X11885Y8405D02*
X11950Y8470D01*
X12070Y8728D02*
X12392Y9050D01*
X12070Y8480D02*
Y8728D01*
Y8480D02*
X12145Y8405D01*
X11840Y8840D02*
X11890Y8790D01*
Y8565D02*
Y8790D01*
X11860Y8535D02*
X11890Y8565D01*
X12145Y8405D02*
X12300D01*
X12110Y8280D02*
X12300D01*
X11740Y8405D02*
X11885D01*
X11700Y8840D02*
X11840D01*
X11630Y8910D02*
Y9050D01*
Y8910D02*
X11700Y8840D01*
X11740Y8535D02*
X11860D01*
D25*
X10460Y10012D02*
Y9860D01*
Y9936D01*
X10562D01*
Y10012D01*
Y9860D01*
X10714Y10012D02*
X10612D01*
Y9860D01*
X10714D01*
X10612Y9936D02*
X10663D01*
X10765Y10012D02*
X10866Y9860D01*
Y10012D02*
X10765Y9860D01*
X11380Y10012D02*
Y9860D01*
X11456D01*
X11482Y9885D01*
Y9987D01*
X11456Y10012D01*
X11380D01*
X11532D02*
Y9860D01*
X11634D01*
X11685Y9936D02*
X11786D01*
X11837Y10012D02*
Y9911D01*
X11888Y9860D01*
X11939Y9911D01*
Y10012D01*
X11989Y9987D02*
X12015Y10012D01*
X12066D01*
X12091Y9987D01*
Y9962D01*
X12066Y9936D01*
X12040D01*
X12066D01*
X12091Y9911D01*
Y9885D01*
X12066Y9860D01*
X12015D01*
X11989Y9885D01*
D26*
X10610Y5860D02*
D03*
D27*
X11785Y5190D02*
D03*
D28*
X12605Y5520D02*
D03*
D29*
X12970Y8795D02*
D03*
Y9050D02*
D03*
Y9305D02*
D03*
Y9555D02*
D03*
D30*
Y9810D02*
D03*
D31*
X12870Y6940D02*
D03*
X10800Y8120D02*
D03*
X11410Y6190D02*
D03*
X11440Y7220D02*
D03*
X12440Y5560D02*
D03*
X10780Y6190D02*
D03*
X12430Y7530D02*
D03*
X12870Y7540D02*
D03*
D32*
X11630Y9050D02*
D03*
D33*
Y9304D02*
D03*
X11884Y9050D02*
D03*
Y9304D02*
D03*
X12138Y9050D02*
D03*
Y9304D02*
D03*
X12392Y9050D02*
D03*
Y9304D02*
D03*
X12646Y9050D02*
D03*
Y9304D02*
D03*
M02*
