M48
;Layer_Color=9474304
;FILE_FORMAT=4:2
METRIC,LZ
;TYPE=PLATED
T1F00S00C0.80
T2F00S00C1.20
T3F00S00C2.00
%
T01
X01297Y008795
Y00905
Y009305
Y009555
Y00981
T02
X01163Y00905
Y009304
X011884
Y00905
X012138
Y009304
X012392
Y00905
X012646
Y009304
T03
X01244Y00556
X01287Y00694
Y00754
X01243Y00753
X01144Y00722
X01141Y00619
X01078
X0108Y00812
M30
