%FSLAX42Y42*%
%MOMM*%
G71*
G01*
G75*
G04 Layer_Color=8388736*
%ADD10R,1.25X0.90*%
%ADD11R,0.90X0.90*%
%ADD12R,0.90X1.25*%
%ADD13R,0.90X0.90*%
%ADD14O,2.00X0.60*%
%ADD15R,1.50X1.25*%
%ADD16R,1.25X1.50*%
%ADD17R,2.54X1.78*%
%ADD18R,7.62X5.59*%
%ADD19R,1.78X2.54*%
%ADD20R,5.59X7.62*%
%ADD21C,0.50*%
%ADD22C,0.35*%
%ADD23C,2.50*%
%ADD24C,0.30*%
%ADD25C,0.25*%
%ADD26R,11.20X16.40*%
%ADD27R,9.90X3.00*%
%ADD28R,11.10X9.60*%
%ADD29C,1.30*%
%ADD30R,1.30X1.30*%
%ADD31C,3.50*%
%ADD32R,1.80X1.80*%
%ADD33C,1.80*%
%ADD34R,1.45X1.10*%
%ADD35R,1.10X1.10*%
%ADD36R,1.10X1.45*%
%ADD37R,1.10X1.10*%
%ADD38O,2.20X0.80*%
%ADD39R,1.70X1.45*%
%ADD40R,1.45X1.70*%
%ADD41R,2.74X1.98*%
%ADD42R,7.82X5.79*%
%ADD43R,1.98X2.74*%
%ADD44R,5.79X7.82*%
%ADD45C,1.50*%
%ADD46R,1.50X1.50*%
%ADD47C,3.70*%
%ADD48R,2.00X2.00*%
%ADD49C,2.00*%
D34*
X10855Y8655D02*
D03*
X10265Y7815D02*
D03*
D35*
X10650Y8560D02*
D03*
Y8750D02*
D03*
X10470Y7910D02*
D03*
Y7720D02*
D03*
D36*
X12425Y6845D02*
D03*
X10805Y7815D02*
D03*
D37*
X12330Y7050D02*
D03*
X12520D02*
D03*
X10900Y7610D02*
D03*
X10710D02*
D03*
D38*
X12300Y8660D02*
D03*
Y8535D02*
D03*
Y8405D02*
D03*
Y8280D02*
D03*
Y8150D02*
D03*
Y8025D02*
D03*
Y7900D02*
D03*
X11740D02*
D03*
Y8025D02*
D03*
Y8150D02*
D03*
Y8280D02*
D03*
Y8405D02*
D03*
Y8535D02*
D03*
Y8660D02*
D03*
D39*
X11110D02*
D03*
X11340D02*
D03*
X12850Y6180D02*
D03*
X12620D02*
D03*
X12200Y6520D02*
D03*
X11970D02*
D03*
X12850D02*
D03*
X12620D02*
D03*
X10870Y7320D02*
D03*
X10640D02*
D03*
X12700Y8310D02*
D03*
X12930D02*
D03*
X11150Y8130D02*
D03*
X11380D02*
D03*
X12930Y8040D02*
D03*
X12700D02*
D03*
D40*
X11340Y8950D02*
D03*
Y9180D02*
D03*
X11780Y7410D02*
D03*
Y7640D02*
D03*
X11150Y7840D02*
D03*
Y7610D02*
D03*
X12050Y7410D02*
D03*
Y7640D02*
D03*
X11430Y7610D02*
D03*
Y7840D02*
D03*
D41*
X11410Y5861D02*
D03*
Y5480D02*
D03*
D42*
X10775Y5671D02*
D03*
D43*
X11739Y6190D02*
D03*
X12120D02*
D03*
D44*
X11929Y5555D02*
D03*
D45*
X12970Y8795D02*
D03*
Y9050D02*
D03*
Y9305D02*
D03*
Y9555D02*
D03*
D46*
Y9810D02*
D03*
D47*
X12870Y6940D02*
D03*
X10800Y8120D02*
D03*
X11410Y6190D02*
D03*
X11440Y7220D02*
D03*
X12440Y5560D02*
D03*
X10780Y6190D02*
D03*
X12430Y7530D02*
D03*
X12870Y7540D02*
D03*
D48*
X11630Y9050D02*
D03*
D49*
Y9304D02*
D03*
X11884Y9050D02*
D03*
Y9304D02*
D03*
X12138Y9050D02*
D03*
Y9304D02*
D03*
X12392Y9050D02*
D03*
Y9304D02*
D03*
X12646Y9050D02*
D03*
Y9304D02*
D03*
M02*
