METRIC,LZ
M48
T1F00S00C0.75
T2F00S00C0.90
T3F00S00C1.20
T4F00S00C1.50
T5F00S00C2.00
%
T01
X003595Y-000943
X00385
X00436
X00461
X004865
X005147Y-000893
X005362Y-000778
X005147Y-000662
T02
X005188Y-001277
X005388
Y-000262
X005188
T03
X003228Y-001615
X003628
X004228Y-001865
X004828Y-001615
X002627Y-001865
X002027Y-001615
X001627Y-001615
X001027Y-001865
X000428Y-001615
Y-000415
X001627
X002027Y-000415
X003228
X003628
X004828
T04
X003572Y-002317
X004083
X00437
X00488
T05
X003128Y-002317
X00533
Y-00177
X002474Y-002317
X001825
X001176
X000528
M30
